<mxfile host="Electron" agent="Mozilla/5.0 (Windows NT 10.0; Win64; x64) AppleWebKit/537.36 (KHTML, like Gecko) draw.io/28.1.2 Chrome/138.0.7204.243 Electron/37.4.0 Safari/537.36" version="28.1.2" pages="7">
  <diagram name="overview" id="v-fH6MzNMlpos3FZSHfg">
    <mxGraphModel dx="1426" dy="841" grid="1" gridSize="10" guides="1" tooltips="1" connect="1" arrows="1" fold="1" page="1" pageScale="1" pageWidth="827" pageHeight="1169" math="0" shadow="0">
      <root>
        <mxCell id="0" />
        <mxCell id="1" parent="0" />
        <mxCell id="7CeW7Uzzdrn008_rculG-2" value="" style="rounded=1;whiteSpace=wrap;html=1;dashed=1;" parent="1" vertex="1">
          <mxGeometry x="40" y="319.56" width="220" height="180.44" as="geometry" />
        </mxCell>
        <mxCell id="c-z1gGyClp4EE-uFw3N3-7" value="" style="rounded=1;whiteSpace=wrap;html=1;dashed=1;" parent="1" vertex="1">
          <mxGeometry x="340" y="410" width="420" height="300" as="geometry" />
        </mxCell>
        <mxCell id="c-z1gGyClp4EE-uFw3N3-1" value="" style="rounded=1;whiteSpace=wrap;html=1;dashed=1;" parent="1" vertex="1">
          <mxGeometry x="430" y="80" width="330" height="180" as="geometry" />
        </mxCell>
        <mxCell id="c-z1gGyClp4EE-uFw3N3-2" value="API Management" style="image;aspect=fixed;html=1;points=[];align=center;fontSize=12;image=img/lib/azure2/app_services/API_Management_Services.svg;imageBackground=default;" parent="1" vertex="1">
          <mxGeometry x="562.5" y="40" width="65" height="60" as="geometry" />
        </mxCell>
        <mxCell id="c-z1gGyClp4EE-uFw3N3-3" value="Protected&#xa;Backend API" style="shape=image;verticalLabelPosition=bottom;labelBackgroundColor=default;verticalAlign=top;aspect=fixed;imageAspect=0;image=data:image/svg+xml,PHN2ZyB4bWxucz0iaHR0cDovL3d3dy53My5vcmcvMjAwMC9zdmciIHZpZXdCb3g9IjAgMCA1MCA1MCI+JiN4YTsgICAgPHBhdGggZmlsbD0iIzU3YTMwMCIgZD0iTTAgMjAuODRoMTkuNTV2OC4zMkgweiIvPiYjeGE7ICAgIDxwYXRoIGZpbGw9IiM1OWI0ZDkiIGQ9Ik00MS42OCAyMC44NGgxMC4yNnY4LjMySDQxLjY4eiIvPiYjeGE7ICAgIDxjaXJjbGUgZmlsbD0iIzU3YTMwMCIgcj0iOS40NiIgY3k9IjI1IiBjeD0iMjAuMTIiLz4mI3hhOyAgICA8cGF0aCBmaWxsPSIjNTliNGQ5IiBkPSJNMjAuMTIuNDh2MTAuOTZhMSAxIDAgMCAxIDAgMjcuMTR2MTAuOTZhMSAxIDAgMCAwIDAtNDkuMDVaIi8+JiN4YTs8L3N2Zz4=;imageBackground=none;fontStyle=1" parent="1" vertex="1">
          <mxGeometry x="660" y="160" width="50" height="50" as="geometry" />
        </mxCell>
        <mxCell id="c-z1gGyClp4EE-uFw3N3-19" value="2b. retrieves&amp;nbsp;&lt;div&gt;token for&lt;/div&gt;" style="rounded=0;orthogonalLoop=1;jettySize=auto;html=1;exitX=1;exitY=1;exitDx=0;exitDy=0;" parent="1" source="cBrDTxg3P6peZgdaZP9S-1" target="c-z1gGyClp4EE-uFw3N3-5" edge="1">
          <mxGeometry x="0.0719" y="17" relative="1" as="geometry">
            <mxPoint x="480" y="340" as="sourcePoint" />
            <mxPoint as="offset" />
          </mxGeometry>
        </mxCell>
        <mxCell id="c-z1gGyClp4EE-uFw3N3-20" value="2a. retrieves token for client using either:&lt;div&gt;- the&amp;nbsp;&lt;span style=&quot;background-color: light-dark(#ffffff, var(--ge-dark-color, #121212)); color: light-dark(rgb(0, 0, 0), rgb(255, 255, 255));&quot;&gt;credential manager&lt;/span&gt;&lt;/div&gt;&lt;div&gt;- or send-request with secret&lt;/div&gt;&lt;div&gt;- or send-request with certificate&lt;/div&gt;" style="rounded=0;orthogonalLoop=1;jettySize=auto;html=1;exitX=0.25;exitY=1;exitDx=0;exitDy=0;align=left;" parent="1" source="cBrDTxg3P6peZgdaZP9S-1" target="c-z1gGyClp4EE-uFw3N3-10" edge="1">
          <mxGeometry x="0.0017" y="-110" relative="1" as="geometry">
            <mxPoint x="420" y="350" as="sourcePoint" />
            <mxPoint as="offset" />
          </mxGeometry>
        </mxCell>
        <mxCell id="c-z1gGyClp4EE-uFw3N3-21" value="3. calls API&lt;div&gt;with Bearer token&lt;/div&gt;" style="edgeStyle=orthogonalEdgeStyle;rounded=0;orthogonalLoop=1;jettySize=auto;html=1;" parent="1" source="cBrDTxg3P6peZgdaZP9S-1" target="c-z1gGyClp4EE-uFw3N3-3" edge="1">
          <mxGeometry x="-0.0769" y="25" relative="1" as="geometry">
            <mxPoint as="offset" />
          </mxGeometry>
        </mxCell>
        <mxCell id="c-z1gGyClp4EE-uFw3N3-6" value="Client" style="verticalLabelPosition=bottom;html=1;verticalAlign=top;align=center;strokeColor=none;fillColor=#00BEF2;shape=mxgraph.azure.user;fontStyle=0;labelBackgroundColor=default;" parent="1" vertex="1">
          <mxGeometry x="260" y="160" width="47.5" height="50" as="geometry" />
        </mxCell>
        <mxCell id="c-z1gGyClp4EE-uFw3N3-9" value="" style="rounded=1;whiteSpace=wrap;html=1;fillColor=#dae8fc;strokeColor=#6c8ebf;align=left;verticalAlign=bottom;" parent="1" vertex="1">
          <mxGeometry x="370" y="480" width="210" height="200" as="geometry" />
        </mxCell>
        <mxCell id="c-z1gGyClp4EE-uFw3N3-10" value="Client&lt;div&gt;&lt;span style=&quot;font-weight: normal;&quot;&gt;(app registration)&lt;/span&gt;&lt;/div&gt;" style="image;sketch=0;aspect=fixed;html=1;points=[];align=center;fontSize=12;image=img/lib/mscae/App_Registrations.svg;fontStyle=1;labelBackgroundColor=none;" parent="1" vertex="1">
          <mxGeometry x="454.5" y="450" width="50" height="50" as="geometry" />
        </mxCell>
        <mxCell id="cBrDTxg3P6peZgdaZP9S-2" value="1. call API&lt;div&gt;without authentication&lt;/div&gt;" style="edgeStyle=orthogonalEdgeStyle;rounded=0;orthogonalLoop=1;jettySize=auto;html=1;" parent="1" source="c-z1gGyClp4EE-uFw3N3-6" target="cBrDTxg3P6peZgdaZP9S-1" edge="1">
          <mxGeometry x="-0.3454" y="25" relative="1" as="geometry">
            <mxPoint as="offset" />
            <mxPoint x="308" y="185" as="sourcePoint" />
            <mxPoint x="695" y="185" as="targetPoint" />
          </mxGeometry>
        </mxCell>
        <mxCell id="cBrDTxg3P6peZgdaZP9S-1" value="Unprotected API" style="shape=image;verticalLabelPosition=bottom;labelBackgroundColor=default;verticalAlign=top;aspect=fixed;imageAspect=0;image=data:image/svg+xml,PHN2ZyB4bWxucz0iaHR0cDovL3d3dy53My5vcmcvMjAwMC9zdmciIHZpZXdCb3g9IjAgMCA1MCA1MCI+JiN4YTsgICAgPHBhdGggZmlsbD0iIzU3YTMwMCIgZD0iTTAgMjAuODRoMTkuNTV2OC4zMkgweiIvPiYjeGE7ICAgIDxwYXRoIGZpbGw9IiM1OWI0ZDkiIGQ9Ik00MS42OCAyMC44NGgxMC4yNnY4LjMySDQxLjY4eiIvPiYjeGE7ICAgIDxjaXJjbGUgZmlsbD0iIzU3YTMwMCIgcj0iOS40NiIgY3k9IjI1IiBjeD0iMjAuMTIiLz4mI3hhOyAgICA8cGF0aCBmaWxsPSIjNTliNGQ5IiBkPSJNMjAuMTIuNDh2MTAuOTZhMSAxIDAgMCAxIDAgMjcuMTR2MTAuOTZhMSAxIDAgMCAwIDAtNDkuMDVaIi8+JiN4YTs8L3N2Zz4=;imageBackground=none;fontStyle=1" parent="1" vertex="1">
          <mxGeometry x="480" y="160" width="50" height="50" as="geometry" />
        </mxCell>
        <mxCell id="c-z1gGyClp4EE-uFw3N3-4" value="Microsoft Entra ID" style="image;aspect=fixed;html=1;points=[];align=center;fontSize=12;image=img/lib/azure2/other/Entra_Identity.svg;" parent="1" vertex="1">
          <mxGeometry x="520" y="369.12" width="68" height="60.440000000000005" as="geometry" />
        </mxCell>
        <mxCell id="7CeW7Uzzdrn008_rculG-1" value="Key Vault" style="image;aspect=fixed;html=1;points=[];align=center;fontSize=12;image=img/lib/azure2/security/Key_Vaults.svg;" parent="1" vertex="1">
          <mxGeometry x="120" y="279.56" width="68" height="68" as="geometry" />
        </mxCell>
        <mxCell id="7CeW7Uzzdrn008_rculG-4" value="Client Certificate&lt;div&gt;&lt;i&gt;(only public key)&lt;/i&gt;&lt;/div&gt;" style="sketch=0;pointerEvents=1;shadow=0;dashed=0;html=1;strokeColor=none;labelPosition=center;verticalLabelPosition=bottom;verticalAlign=top;align=center;fillColor=#505050;shape=mxgraph.mscae.intune.intune_certificate_profiles" parent="1" vertex="1">
          <mxGeometry x="408.5" y="558.25" width="40" height="50" as="geometry" />
        </mxCell>
        <mxCell id="7CeW7Uzzdrn008_rculG-5" value="Client Certificate&lt;div&gt;&lt;i&gt;(with private key)&lt;/i&gt;&lt;/div&gt;" style="sketch=0;pointerEvents=1;shadow=0;dashed=0;html=1;strokeColor=none;labelPosition=center;verticalLabelPosition=bottom;verticalAlign=top;align=center;fillColor=#F0AD2D;shape=mxgraph.mscae.intune.intune_certificate_profiles" parent="1" vertex="1">
          <mxGeometry x="80" y="379.56" width="40" height="50" as="geometry" />
        </mxCell>
        <mxCell id="7CeW7Uzzdrn008_rculG-7" value="Client Secret" style="shape=image;verticalLabelPosition=bottom;labelBackgroundColor=default;verticalAlign=top;aspect=fixed;imageAspect=0;image=data:image/png,iVBORw0KGgoAAAANSUhEUgAAAGkAAAB1CAYAAABNls/aAAAAAXNSR0IArs4c6QAAAARnQU1BAACxjwv8YQUAAAAJcEhZcwAADsMAAA7DAcdvqGQAAAerSURBVHhe7d1rbFtnHcfx7zmJk7hx564pTdK0Xdf0su7WVFt6oaxjWoUGQuIiIbQBYn1RhGBCAyoGGtMmGDCJbntRpIEYW4W4DYY2bZoQCLYxSnrJso0W1pYkNHEuvaRpZset49t5eBElWv4+J3WS48aP/XwkS+nv/0RJ9NM5eXx67FhKKYVR1GwZGMXHlKQBa+J01/tegrt//46cG7MQqqrkL/e2ynjWzJGkAVOSBkxJGjAlacCUpAFTkgby3oLfffMyGZW1eCrDyyfOyRgKsAXPu6QHblvNJzbUy7hs/eiN7itWkjndacCUpAFTkgZMSRowJWnAlKQBU5IGTEka8P3J7FtnL9JxNi5jAD62+mqaQlUyBmD/f4ZIZx0ZUxes5NNr62QMwPELCQ70x2QMwB0rw6xZVCNjAJ47eZ5YMitjagM292z4gIxdaf1kdiSZoSeWdH0kMrklTDgVHctZ3xNLMhhPy6WTYtN8rXgqt4QJfS7re2JJemMpubQo+F6S4T9TkgZMSRowJWnAlKQB37fg5ULrLbjhP1OSBkxJGjAlacCUpAHfSxoZy3AqmnR9THftrsdl/alokv7RpFw6KZbK5qyfeMTT3l+rbzSVs/5UNEkk5v215pPvW/C/RaK8GonKGIBdNy71vDL9cFsfGSf3RYeNtVXct6lBxgAcPj3KS90jMgbgM+vqaFlaK2MA9rYPMOJyFTwUqOA7W5pk7MpswY0pTEkaMCVpwJSkAVOSCxVtR/Xsxen81pSH6n0CYm/L5QXn++5ufDs7JmMAWpbWsrimUsYAvN4Xw3F5S4lQVQWbG0IyBmAgnuLkhYSMAbi+LkhDrfv9FG2Do4y97+lAIDvCstivqEsc4Kqxf0PW/R6NSYGr6M2u55XzG3kpdhfx7NRdpN+7O99L0kqiB6fzQRh6RU7ylibA3+Pb+cn53ZzPLoYClFS2pzvnv9/AaWuZU0EAAdLsDL3OH1bdy5eX7JdjX5RfSaNHcQ7eAn3PyMmcBEjz+fBzPLvyPuorzsjxnJRVSSqyD+fIDrjULUe+WRvo5qeNX0Kde16OZq1sSnI696A6H5JxQQStBOrYblRknxzNSlmU5HTugcjTMi4whep8CNX/lBzMmO+7u2K7zVgNPo06vkeOrxyrEqvld1iLd8pJ3nw/korpNmMVO4I68W35aVeWyqCO7YLkgJzkzfeSikVFNoY69gVQGTnKXyAMtetgQfP4x7OVGcU59jmZ5q1kS2o8+z0YOyvjywvdgLX+B9g7OrF39GJvPYK9rWP84w+dwGr+7nhxMxV9B9X/M5nmpSRLqqebxcO/lfG0xqwwQ6t+jL3ln1jLvwoBl5fAVDdgrdqDvfUIQ00Pk1BBuWJa6n+PgeN+GWs6JVnSR7JPymhasUAzldsOUd+8W4481V/3dZzWf3CB5XLkLT2Cijwh08squZLq6WJd5g0ZexqqbmXRjg6qgo1ydFkLw2tY8uFDnGGtHHlSfb+Q0WX5vgWfb87xr8Dgb2TsrqYee8thqFwkJzOSTfSRaNvKAi7KkStrw5NYy3bJ2FPJHUmce1kmnqwbn5lzQQAVwRUMLf+hjD2pwV/LaFolVZIa/hNkRmXsrv7jWOHtMp21a9d/kTP2Bhm7i749ow1EaZV04VUZebLXPiajOVNrvi8jD1nU8J9l6KmkSiLq/Tt1ioU3QfUMdmV5alqxk0u4/y9yjmi7TDyVVkmJHpm4surukJFvhqq3yMiVSnTJyJPvJc3nbcakhuQSV+kFN8vINyq0UUbuEv0y8eT7Fny+bjOuIM0jyVvkElexG/7IooY7ZeyLwc79NETul3Gumnrs7Sdl6sr3I2m+ZAnIyFNlzVIZ+afmGpm4S70nE08lU1IA79NirsL92Mp2P1PkcPL/fgv33Rq+MSVpwJSkAd93d/N1m3GFGuO2rvVyiav05jaqF14vY18MDByk8cRHZezKvjO/zYPvJc0bZwznNfetumRvOwQLrpOxLwpRkjndacCUNEtZpUg7uY9C0O90l+zH6X0cYkfHr9WlhuUKPVXVQXA1hFuwVz0AgSWTI62OJNWzF+fgZuh7FqIdpVMQjP8s0XaI/BynbRPq9C8nR9qU5Jy8H9X9KGQvyVHpyYyi3v3a5L3kWpSkRl6D/sK89qeYqa5HYPSoJiV1Pyqj8qCyOL2Pa1BSNj7++6dcjRzQoKRE4V7wpYXUcPGXpLL531VTqoq+JMOUpAVTkgZMSRowJWnAlKQBU5IGTEkaMCVpwJSkAVOSBkxJGjAlacCUpIEZ3S0UDFTIuODCqQ5aT39WxmUl75Lmy03Bd3lq2TdlXFbM6U4DpiQNmJI0YErSgClJA6YkDUzZgifSuX9Cbb4FL7WzoutTMi4rkyUVKxU9hHrzLhmXFXO604ApSQOmJA1oUNKVv6hbbIq+JKtm5u8yXGqKviSql8/tTxDorqZJg5IArr5dJuWjbmfxP08CIP4vnMPlWFQF9gff0uRICm2Ehk/KtPSt3AXBazQ5kgAyF3HevB0u5v8Gs1oL34p9619Bi43DhMpa7E0vQii/d+LSWrgVe9MLk//U50h6HxXZh+rZC2n3N+TVVk0TVvODWA33TIm1LKnc6HO6K2P/B0KhDVqTNjx5AAAAAElFTkSuQmCC;" parent="1" vertex="1">
          <mxGeometry x="188" y="379.56" width="44.87" height="50" as="geometry" />
        </mxCell>
        <mxCell id="7CeW7Uzzdrn008_rculG-10" value="" style="points=[[0,0.5,0],[0.24,0,0],[0.5,0.28,0],[0.995,0.475,0],[0.5,0.72,0],[0.24,1,0]];verticalLabelPosition=bottom;sketch=0;html=1;verticalAlign=top;aspect=fixed;align=center;pointerEvents=1;shape=mxgraph.cisco19.key;fillColor=#F0AD2D;strokeColor=none;rotation=90;" parent="1" vertex="1">
          <mxGeometry x="504.5" y="572" width="50" height="22.5" as="geometry" />
        </mxCell>
        <mxCell id="7CeW7Uzzdrn008_rculG-11" value="Client Secret" style="text;html=1;align=center;verticalAlign=middle;whiteSpace=wrap;rounded=0;" parent="1" vertex="1">
          <mxGeometry x="490" y="610.44" width="76.5" height="30" as="geometry" />
        </mxCell>
        <mxCell id="c-z1gGyClp4EE-uFw3N3-5" value="Backend&lt;div&gt;&lt;span style=&quot;font-weight: normal;&quot;&gt;(app registration)&lt;/span&gt;&lt;/div&gt;" style="image;sketch=0;aspect=fixed;html=1;points=[];align=center;fontSize=12;image=img/lib/mscae/App_Registrations.svg;fontStyle=1;labelBackgroundColor=none;" parent="1" vertex="1">
          <mxGeometry x="660" y="450" width="50" height="50" as="geometry" />
        </mxCell>
        <mxCell id="7CeW7Uzzdrn008_rculG-14" value="certificate &amp;amp; secret&lt;div&gt;stored in&lt;/div&gt;" style="endArrow=classic;html=1;rounded=0;fontStyle=2;dashed=1;" parent="1" source="c-z1gGyClp4EE-uFw3N3-9" target="7CeW7Uzzdrn008_rculG-2" edge="1">
          <mxGeometry width="50" height="50" relative="1" as="geometry">
            <mxPoint x="590" y="470" as="sourcePoint" />
            <mxPoint x="640" y="420" as="targetPoint" />
          </mxGeometry>
        </mxCell>
        <mxCell id="7CeW7Uzzdrn008_rculG-16" value="uses" style="endArrow=classic;html=1;rounded=0;fontStyle=2;dashed=1;" parent="1" source="cBrDTxg3P6peZgdaZP9S-1" target="7CeW7Uzzdrn008_rculG-2" edge="1">
          <mxGeometry width="50" height="50" relative="1" as="geometry">
            <mxPoint x="590" y="470" as="sourcePoint" />
            <mxPoint x="640" y="420" as="targetPoint" />
          </mxGeometry>
        </mxCell>
      </root>
    </mxGraphModel>
  </diagram>
  <diagram name="without-authentication" id="KevnOSe8uPVK3kimokcO">
    <mxGraphModel dx="1426" dy="841" grid="1" gridSize="10" guides="1" tooltips="1" connect="1" arrows="1" fold="1" page="1" pageScale="1" pageWidth="827" pageHeight="1169" math="0" shadow="0">
      <root>
        <mxCell id="SDoTEkgOmAo_s1_UZNhC-0" />
        <mxCell id="SDoTEkgOmAo_s1_UZNhC-1" parent="SDoTEkgOmAo_s1_UZNhC-0" />
        <mxCell id="SDoTEkgOmAo_s1_UZNhC-2" value="" style="shape=umlLifeline;perimeter=lifelinePerimeter;whiteSpace=wrap;html=1;container=1;dropTarget=0;collapsible=0;recursiveResize=0;outlineConnect=0;portConstraint=eastwest;newEdgeStyle={&quot;curved&quot;:0,&quot;rounded&quot;:0};participant=umlActor;" parent="SDoTEkgOmAo_s1_UZNhC-1" vertex="1">
          <mxGeometry x="40" y="80" width="20" height="190" as="geometry" />
        </mxCell>
        <mxCell id="SDoTEkgOmAo_s1_UZNhC-3" value="Protected Backend API&lt;div&gt;&lt;i&gt;(API Management)&lt;/i&gt;&lt;/div&gt;" style="shape=umlLifeline;perimeter=lifelinePerimeter;whiteSpace=wrap;html=1;container=1;dropTarget=0;collapsible=0;recursiveResize=0;outlineConnect=0;portConstraint=eastwest;newEdgeStyle={&quot;curved&quot;:0,&quot;rounded&quot;:0};" parent="SDoTEkgOmAo_s1_UZNhC-1" vertex="1">
          <mxGeometry x="287.5" y="80" width="132.5" height="190" as="geometry" />
        </mxCell>
        <mxCell id="SDoTEkgOmAo_s1_UZNhC-4" value="" style="html=1;points=[[0,0,0,0,5],[0,1,0,0,-5],[1,0,0,0,5],[1,1,0,0,-5]];perimeter=orthogonalPerimeter;outlineConnect=0;targetShapes=umlLifeline;portConstraint=eastwest;newEdgeStyle={&quot;curved&quot;:0,&quot;rounded&quot;:0};" parent="SDoTEkgOmAo_s1_UZNhC-3" vertex="1">
          <mxGeometry x="62.5" y="105" width="10" height="40" as="geometry" />
        </mxCell>
        <mxCell id="SDoTEkgOmAo_s1_UZNhC-7" value="Unrotected API&lt;div&gt;&lt;i&gt;(API Management)&lt;/i&gt;&lt;/div&gt;" style="shape=umlLifeline;perimeter=lifelinePerimeter;whiteSpace=wrap;html=1;container=1;dropTarget=0;collapsible=0;recursiveResize=0;outlineConnect=0;portConstraint=eastwest;newEdgeStyle={&quot;curved&quot;:0,&quot;rounded&quot;:0};" parent="SDoTEkgOmAo_s1_UZNhC-1" vertex="1">
          <mxGeometry x="160" y="80" width="110" height="190" as="geometry" />
        </mxCell>
        <mxCell id="SDoTEkgOmAo_s1_UZNhC-8" value="" style="html=1;points=[[0,0,0,0,5],[0,1,0,0,-5],[1,0,0,0,5],[1,1,0,0,-5]];perimeter=orthogonalPerimeter;outlineConnect=0;targetShapes=umlLifeline;portConstraint=eastwest;newEdgeStyle={&quot;curved&quot;:0,&quot;rounded&quot;:0};" parent="SDoTEkgOmAo_s1_UZNhC-7" vertex="1">
          <mxGeometry x="50" y="80" width="10" height="90" as="geometry" />
        </mxCell>
        <mxCell id="SDoTEkgOmAo_s1_UZNhC-9" value="GET /without-authentication" style="html=1;verticalAlign=bottom;endArrow=block;curved=0;rounded=0;entryX=0;entryY=0;entryDx=0;entryDy=5;" parent="SDoTEkgOmAo_s1_UZNhC-1" source="SDoTEkgOmAo_s1_UZNhC-2" target="SDoTEkgOmAo_s1_UZNhC-8" edge="1">
          <mxGeometry x="-0.0041" relative="1" as="geometry">
            <mxPoint x="140" y="165" as="sourcePoint" />
            <mxPoint as="offset" />
          </mxGeometry>
        </mxCell>
        <mxCell id="SDoTEkgOmAo_s1_UZNhC-10" value="401 Unauthorized" style="html=1;verticalAlign=bottom;endArrow=open;dashed=1;endSize=8;curved=0;rounded=0;exitX=0;exitY=1;exitDx=0;exitDy=-5;" parent="SDoTEkgOmAo_s1_UZNhC-1" source="SDoTEkgOmAo_s1_UZNhC-8" target="SDoTEkgOmAo_s1_UZNhC-2" edge="1">
          <mxGeometry relative="1" as="geometry">
            <mxPoint x="140" y="235" as="targetPoint" />
          </mxGeometry>
        </mxCell>
        <mxCell id="SDoTEkgOmAo_s1_UZNhC-11" value="401 Unauthorized" style="html=1;verticalAlign=bottom;endArrow=open;dashed=1;endSize=8;curved=0;rounded=0;exitX=0;exitY=1;exitDx=0;exitDy=-5;" parent="SDoTEkgOmAo_s1_UZNhC-1" source="SDoTEkgOmAo_s1_UZNhC-4" target="SDoTEkgOmAo_s1_UZNhC-8" edge="1">
          <mxGeometry relative="1" as="geometry">
            <mxPoint x="260" y="345" as="targetPoint" />
          </mxGeometry>
        </mxCell>
        <mxCell id="SDoTEkgOmAo_s1_UZNhC-12" value="GET" style="html=1;verticalAlign=bottom;endArrow=block;curved=0;rounded=0;entryX=0;entryY=0;entryDx=0;entryDy=5;" parent="SDoTEkgOmAo_s1_UZNhC-1" source="SDoTEkgOmAo_s1_UZNhC-8" target="SDoTEkgOmAo_s1_UZNhC-4" edge="1">
          <mxGeometry relative="1" as="geometry">
            <mxPoint x="260" y="275" as="sourcePoint" />
          </mxGeometry>
        </mxCell>
      </root>
    </mxGraphModel>
  </diagram>
  <diagram name="credential-manager" id="e_4XBq-jittrBkoRFaAu">
    <mxGraphModel dx="1426" dy="841" grid="1" gridSize="10" guides="1" tooltips="1" connect="1" arrows="1" fold="1" page="1" pageScale="1" pageWidth="827" pageHeight="1169" math="0" shadow="0">
      <root>
        <mxCell id="-7wcxMzF_2Zg92gLCawP-0" />
        <mxCell id="-7wcxMzF_2Zg92gLCawP-1" parent="-7wcxMzF_2Zg92gLCawP-0" />
        <mxCell id="-7wcxMzF_2Zg92gLCawP-2" value="" style="shape=umlLifeline;perimeter=lifelinePerimeter;whiteSpace=wrap;html=1;container=1;dropTarget=0;collapsible=0;recursiveResize=0;outlineConnect=0;portConstraint=eastwest;newEdgeStyle={&quot;curved&quot;:0,&quot;rounded&quot;:0};participant=umlActor;" parent="-7wcxMzF_2Zg92gLCawP-1" vertex="1">
          <mxGeometry x="20" y="80" width="20" height="400" as="geometry" />
        </mxCell>
        <mxCell id="-7wcxMzF_2Zg92gLCawP-3" value="Protected Backend API&lt;div&gt;&lt;i&gt;(API Management)&lt;/i&gt;&lt;/div&gt;" style="shape=umlLifeline;perimeter=lifelinePerimeter;whiteSpace=wrap;html=1;container=1;dropTarget=0;collapsible=0;recursiveResize=0;outlineConnect=0;portConstraint=eastwest;newEdgeStyle={&quot;curved&quot;:0,&quot;rounded&quot;:0};" parent="-7wcxMzF_2Zg92gLCawP-1" vertex="1">
          <mxGeometry x="287.5" y="80" width="132.5" height="400" as="geometry" />
        </mxCell>
        <mxCell id="-7wcxMzF_2Zg92gLCawP-4" value="" style="html=1;points=[[0,0,0,0,5],[0,1,0,0,-5],[1,0,0,0,5],[1,1,0,0,-5]];perimeter=orthogonalPerimeter;outlineConnect=0;targetShapes=umlLifeline;portConstraint=eastwest;newEdgeStyle={&quot;curved&quot;:0,&quot;rounded&quot;:0};" parent="-7wcxMzF_2Zg92gLCawP-3" vertex="1">
          <mxGeometry x="61.25" y="320" width="10" height="40" as="geometry" />
        </mxCell>
        <mxCell id="-7wcxMzF_2Zg92gLCawP-5" value="Credential Manager&lt;div&gt;&lt;i&gt;(API Management)&lt;/i&gt;&lt;/div&gt;" style="shape=umlLifeline;perimeter=lifelinePerimeter;whiteSpace=wrap;html=1;container=1;dropTarget=0;collapsible=0;recursiveResize=0;outlineConnect=0;portConstraint=eastwest;newEdgeStyle={&quot;curved&quot;:0,&quot;rounded&quot;:0};" parent="-7wcxMzF_2Zg92gLCawP-1" vertex="1">
          <mxGeometry x="440" y="80" width="127" height="400" as="geometry" />
        </mxCell>
        <mxCell id="F5zAozDiTsI9lOzsHRhq-1" value="" style="html=1;points=[[0,0,0,0,5],[0,1,0,0,-5],[1,0,0,0,5],[1,1,0,0,-5]];perimeter=orthogonalPerimeter;outlineConnect=0;targetShapes=umlLifeline;portConstraint=eastwest;newEdgeStyle={&quot;curved&quot;:0,&quot;rounded&quot;:0};" parent="-7wcxMzF_2Zg92gLCawP-5" vertex="1">
          <mxGeometry x="58.5" y="110" width="10" height="180" as="geometry" />
        </mxCell>
        <mxCell id="-7wcxMzF_2Zg92gLCawP-7" value="Unrotected API&lt;div&gt;&lt;i&gt;(API Management)&lt;/i&gt;&lt;/div&gt;" style="shape=umlLifeline;perimeter=lifelinePerimeter;whiteSpace=wrap;html=1;container=1;dropTarget=0;collapsible=0;recursiveResize=0;outlineConnect=0;portConstraint=eastwest;newEdgeStyle={&quot;curved&quot;:0,&quot;rounded&quot;:0};" parent="-7wcxMzF_2Zg92gLCawP-1" vertex="1">
          <mxGeometry x="160" y="80" width="110" height="400" as="geometry" />
        </mxCell>
        <mxCell id="-7wcxMzF_2Zg92gLCawP-8" value="" style="html=1;points=[[0,0,0,0,5],[0,1,0,0,-5],[1,0,0,0,5],[1,1,0,0,-5]];perimeter=orthogonalPerimeter;outlineConnect=0;targetShapes=umlLifeline;portConstraint=eastwest;newEdgeStyle={&quot;curved&quot;:0,&quot;rounded&quot;:0};" parent="-7wcxMzF_2Zg92gLCawP-7" vertex="1">
          <mxGeometry x="50" y="80" width="10" height="300" as="geometry" />
        </mxCell>
        <mxCell id="-7wcxMzF_2Zg92gLCawP-9" value="GET /send-request-with-secret" style="html=1;verticalAlign=bottom;endArrow=block;curved=0;rounded=0;entryX=0;entryY=0;entryDx=0;entryDy=5;" parent="-7wcxMzF_2Zg92gLCawP-1" source="-7wcxMzF_2Zg92gLCawP-2" target="-7wcxMzF_2Zg92gLCawP-8" edge="1">
          <mxGeometry x="-0.0041" relative="1" as="geometry">
            <mxPoint x="140" y="165" as="sourcePoint" />
            <mxPoint as="offset" />
          </mxGeometry>
        </mxCell>
        <mxCell id="-7wcxMzF_2Zg92gLCawP-10" value="200 OK" style="html=1;verticalAlign=bottom;endArrow=open;dashed=1;endSize=8;curved=0;rounded=0;exitX=0;exitY=1;exitDx=0;exitDy=-5;" parent="-7wcxMzF_2Zg92gLCawP-1" source="-7wcxMzF_2Zg92gLCawP-8" target="-7wcxMzF_2Zg92gLCawP-2" edge="1">
          <mxGeometry relative="1" as="geometry">
            <mxPoint x="140" y="235" as="targetPoint" />
          </mxGeometry>
        </mxCell>
        <mxCell id="-7wcxMzF_2Zg92gLCawP-11" value="200 OK" style="html=1;verticalAlign=bottom;endArrow=open;dashed=1;endSize=8;curved=0;rounded=0;exitX=0;exitY=1;exitDx=0;exitDy=-5;" parent="-7wcxMzF_2Zg92gLCawP-1" source="-7wcxMzF_2Zg92gLCawP-4" target="-7wcxMzF_2Zg92gLCawP-8" edge="1">
          <mxGeometry relative="1" as="geometry">
            <mxPoint x="260" y="345" as="targetPoint" />
          </mxGeometry>
        </mxCell>
        <mxCell id="-7wcxMzF_2Zg92gLCawP-12" value="GET (access token)" style="html=1;verticalAlign=bottom;endArrow=block;curved=0;rounded=0;entryX=0;entryY=0;entryDx=0;entryDy=5;" parent="-7wcxMzF_2Zg92gLCawP-1" source="-7wcxMzF_2Zg92gLCawP-8" target="-7wcxMzF_2Zg92gLCawP-4" edge="1">
          <mxGeometry relative="1" as="geometry">
            <mxPoint x="260" y="275" as="sourcePoint" />
          </mxGeometry>
        </mxCell>
        <mxCell id="IXa3jHAwRnMDQM0k7663-0" value="Backend app registration&lt;div&gt;&lt;i&gt;(Entra ID)&lt;/i&gt;&lt;/div&gt;" style="shape=umlLifeline;perimeter=lifelinePerimeter;whiteSpace=wrap;html=1;container=1;dropTarget=0;collapsible=0;recursiveResize=0;outlineConnect=0;portConstraint=eastwest;newEdgeStyle={&quot;curved&quot;:0,&quot;rounded&quot;:0};" parent="-7wcxMzF_2Zg92gLCawP-1" vertex="1">
          <mxGeometry x="617" y="80" width="147" height="400" as="geometry" />
        </mxCell>
        <mxCell id="zQYeEFQXa482Er5OiZqX-0" value="" style="html=1;points=[[0,0,0,0,5],[0,1,0,0,-5],[1,0,0,0,5],[1,1,0,0,-5]];perimeter=orthogonalPerimeter;outlineConnect=0;targetShapes=umlLifeline;portConstraint=eastwest;newEdgeStyle={&quot;curved&quot;:0,&quot;rounded&quot;:0};" parent="IXa3jHAwRnMDQM0k7663-0" vertex="1">
          <mxGeometry x="68" y="170" width="10" height="40" as="geometry" />
        </mxCell>
        <mxCell id="F5zAozDiTsI9lOzsHRhq-0" value="if token not cached" style="shape=umlFrame;whiteSpace=wrap;html=1;pointerEvents=0;width=125;height=20;" parent="-7wcxMzF_2Zg92gLCawP-1" vertex="1">
          <mxGeometry x="477" y="210" width="240" height="143" as="geometry" />
        </mxCell>
        <mxCell id="F5zAozDiTsI9lOzsHRhq-2" value="Get token using policy&lt;div&gt;get-authorization-context&lt;/div&gt;" style="html=1;verticalAlign=bottom;endArrow=block;curved=0;rounded=0;entryX=0;entryY=0;entryDx=0;entryDy=5;" parent="-7wcxMzF_2Zg92gLCawP-1" target="F5zAozDiTsI9lOzsHRhq-1" edge="1">
          <mxGeometry relative="1" as="geometry">
            <mxPoint x="220" y="195" as="sourcePoint" />
          </mxGeometry>
        </mxCell>
        <mxCell id="F5zAozDiTsI9lOzsHRhq-3" value="access token" style="html=1;verticalAlign=bottom;endArrow=open;dashed=1;endSize=8;curved=0;rounded=0;exitX=0;exitY=1;exitDx=0;exitDy=-5;" parent="-7wcxMzF_2Zg92gLCawP-1" source="F5zAozDiTsI9lOzsHRhq-1" target="-7wcxMzF_2Zg92gLCawP-8" edge="1">
          <mxGeometry relative="1" as="geometry">
            <mxPoint x="413" y="265" as="targetPoint" />
          </mxGeometry>
        </mxCell>
        <mxCell id="zQYeEFQXa482Er5OiZqX-1" value="Get token (client id, secret, scope)" style="html=1;verticalAlign=bottom;endArrow=block;curved=0;rounded=0;entryX=0;entryY=0;entryDx=0;entryDy=5;" parent="-7wcxMzF_2Zg92gLCawP-1" source="F5zAozDiTsI9lOzsHRhq-1" target="zQYeEFQXa482Er5OiZqX-0" edge="1">
          <mxGeometry relative="1" as="geometry">
            <mxPoint x="615" y="245" as="sourcePoint" />
          </mxGeometry>
        </mxCell>
        <mxCell id="zQYeEFQXa482Er5OiZqX-2" value="access token" style="html=1;verticalAlign=bottom;endArrow=open;dashed=1;endSize=8;curved=0;rounded=0;exitX=0;exitY=1;exitDx=0;exitDy=-5;" parent="-7wcxMzF_2Zg92gLCawP-1" source="zQYeEFQXa482Er5OiZqX-0" target="F5zAozDiTsI9lOzsHRhq-1" edge="1">
          <mxGeometry relative="1" as="geometry">
            <mxPoint x="615" y="315" as="targetPoint" />
          </mxGeometry>
        </mxCell>
        <mxCell id="RBUR_AFP5Pt6cn9FlUsL-0" value="" style="html=1;points=[[0,0,0,0,5],[0,1,0,0,-5],[1,0,0,0,5],[1,1,0,0,-5]];perimeter=orthogonalPerimeter;outlineConnect=0;targetShapes=umlLifeline;portConstraint=eastwest;newEdgeStyle={&quot;curved&quot;:0,&quot;rounded&quot;:0};" parent="-7wcxMzF_2Zg92gLCawP-1" vertex="1">
          <mxGeometry x="504" y="312" width="10" height="30" as="geometry" />
        </mxCell>
        <mxCell id="RBUR_AFP5Pt6cn9FlUsL-1" value="cache token" style="html=1;align=left;spacingLeft=2;endArrow=block;rounded=0;edgeStyle=orthogonalEdgeStyle;curved=0;rounded=0;" parent="-7wcxMzF_2Zg92gLCawP-1" target="RBUR_AFP5Pt6cn9FlUsL-0" edge="1">
          <mxGeometry relative="1" as="geometry">
            <mxPoint x="509" y="302" as="sourcePoint" />
            <Array as="points">
              <mxPoint x="509" y="302" />
              <mxPoint x="539" y="302" />
              <mxPoint x="539" y="322" />
            </Array>
          </mxGeometry>
        </mxCell>
      </root>
    </mxGraphModel>
  </diagram>
  <diagram name="send-request-with-secret" id="T999v1JWD-zuzra6A1x7">
    <mxGraphModel dx="1426" dy="841" grid="1" gridSize="10" guides="1" tooltips="1" connect="1" arrows="1" fold="1" page="1" pageScale="1" pageWidth="827" pageHeight="1169" math="0" shadow="0">
      <root>
        <mxCell id="MTBBnn2Q58c1l2iHvtrN-0" />
        <mxCell id="MTBBnn2Q58c1l2iHvtrN-1" parent="MTBBnn2Q58c1l2iHvtrN-0" />
        <mxCell id="MTBBnn2Q58c1l2iHvtrN-2" value="" style="shape=umlLifeline;perimeter=lifelinePerimeter;whiteSpace=wrap;html=1;container=1;dropTarget=0;collapsible=0;recursiveResize=0;outlineConnect=0;portConstraint=eastwest;newEdgeStyle={&quot;curved&quot;:0,&quot;rounded&quot;:0};participant=umlActor;" parent="MTBBnn2Q58c1l2iHvtrN-1" vertex="1">
          <mxGeometry x="20" y="80" width="20" height="340" as="geometry" />
        </mxCell>
        <mxCell id="MTBBnn2Q58c1l2iHvtrN-3" value="Protected Backend API&lt;div&gt;&lt;i&gt;(API Management)&lt;/i&gt;&lt;/div&gt;" style="shape=umlLifeline;perimeter=lifelinePerimeter;whiteSpace=wrap;html=1;container=1;dropTarget=0;collapsible=0;recursiveResize=0;outlineConnect=0;portConstraint=eastwest;newEdgeStyle={&quot;curved&quot;:0,&quot;rounded&quot;:0};" parent="MTBBnn2Q58c1l2iHvtrN-1" vertex="1">
          <mxGeometry x="287.5" y="80" width="132.5" height="340" as="geometry" />
        </mxCell>
        <mxCell id="0RmOqdITF_pL-Moo39bk-4" value="" style="html=1;points=[[0,0,0,0,5],[0,1,0,0,-5],[1,0,0,0,5],[1,1,0,0,-5]];perimeter=orthogonalPerimeter;outlineConnect=0;targetShapes=umlLifeline;portConstraint=eastwest;newEdgeStyle={&quot;curved&quot;:0,&quot;rounded&quot;:0};" parent="MTBBnn2Q58c1l2iHvtrN-3" vertex="1">
          <mxGeometry x="61.25" y="270" width="10" height="40" as="geometry" />
        </mxCell>
        <mxCell id="MTBBnn2Q58c1l2iHvtrN-7" value="Backend app registration&lt;div&gt;&lt;i&gt;(Entra ID)&lt;/i&gt;&lt;/div&gt;" style="shape=umlLifeline;perimeter=lifelinePerimeter;whiteSpace=wrap;html=1;container=1;dropTarget=0;collapsible=0;recursiveResize=0;outlineConnect=0;portConstraint=eastwest;newEdgeStyle={&quot;curved&quot;:0,&quot;rounded&quot;:0};" parent="MTBBnn2Q58c1l2iHvtrN-1" vertex="1">
          <mxGeometry x="440" y="80" width="147" height="340" as="geometry" />
        </mxCell>
        <mxCell id="0RmOqdITF_pL-Moo39bk-8" value="" style="html=1;points=[[0,0,0,0,5],[0,1,0,0,-5],[1,0,0,0,5],[1,1,0,0,-5]];perimeter=orthogonalPerimeter;outlineConnect=0;targetShapes=umlLifeline;portConstraint=eastwest;newEdgeStyle={&quot;curved&quot;:0,&quot;rounded&quot;:0};" parent="MTBBnn2Q58c1l2iHvtrN-7" vertex="1">
          <mxGeometry x="68.5" y="140" width="10" height="40" as="geometry" />
        </mxCell>
        <mxCell id="0RmOqdITF_pL-Moo39bk-0" value="Unrotected API&lt;div&gt;&lt;i&gt;(API Management)&lt;/i&gt;&lt;/div&gt;" style="shape=umlLifeline;perimeter=lifelinePerimeter;whiteSpace=wrap;html=1;container=1;dropTarget=0;collapsible=0;recursiveResize=0;outlineConnect=0;portConstraint=eastwest;newEdgeStyle={&quot;curved&quot;:0,&quot;rounded&quot;:0};" parent="MTBBnn2Q58c1l2iHvtrN-1" vertex="1">
          <mxGeometry x="160" y="80" width="110" height="340" as="geometry" />
        </mxCell>
        <mxCell id="0RmOqdITF_pL-Moo39bk-1" value="" style="html=1;points=[[0,0,0,0,5],[0,1,0,0,-5],[1,0,0,0,5],[1,1,0,0,-5]];perimeter=orthogonalPerimeter;outlineConnect=0;targetShapes=umlLifeline;portConstraint=eastwest;newEdgeStyle={&quot;curved&quot;:0,&quot;rounded&quot;:0};" parent="0RmOqdITF_pL-Moo39bk-0" vertex="1">
          <mxGeometry x="50" y="80" width="10" height="240" as="geometry" />
        </mxCell>
        <mxCell id="0RmOqdITF_pL-Moo39bk-2" value="GET /send-request-with-secret" style="html=1;verticalAlign=bottom;endArrow=block;curved=0;rounded=0;entryX=0;entryY=0;entryDx=0;entryDy=5;" parent="MTBBnn2Q58c1l2iHvtrN-1" source="MTBBnn2Q58c1l2iHvtrN-2" target="0RmOqdITF_pL-Moo39bk-1" edge="1">
          <mxGeometry x="-0.0041" relative="1" as="geometry">
            <mxPoint x="140" y="165" as="sourcePoint" />
            <mxPoint as="offset" />
          </mxGeometry>
        </mxCell>
        <mxCell id="0RmOqdITF_pL-Moo39bk-3" value="200 OK" style="html=1;verticalAlign=bottom;endArrow=open;dashed=1;endSize=8;curved=0;rounded=0;exitX=0;exitY=1;exitDx=0;exitDy=-5;" parent="MTBBnn2Q58c1l2iHvtrN-1" source="0RmOqdITF_pL-Moo39bk-1" target="MTBBnn2Q58c1l2iHvtrN-2" edge="1">
          <mxGeometry relative="1" as="geometry">
            <mxPoint x="140" y="235" as="targetPoint" />
          </mxGeometry>
        </mxCell>
        <mxCell id="0RmOqdITF_pL-Moo39bk-6" value="200 OK" style="html=1;verticalAlign=bottom;endArrow=open;dashed=1;endSize=8;curved=0;rounded=0;exitX=0;exitY=1;exitDx=0;exitDy=-5;" parent="MTBBnn2Q58c1l2iHvtrN-1" source="0RmOqdITF_pL-Moo39bk-4" target="0RmOqdITF_pL-Moo39bk-1" edge="1">
          <mxGeometry relative="1" as="geometry">
            <mxPoint x="260" y="345" as="targetPoint" />
          </mxGeometry>
        </mxCell>
        <mxCell id="0RmOqdITF_pL-Moo39bk-5" value="GET (access token)" style="html=1;verticalAlign=bottom;endArrow=block;curved=0;rounded=0;entryX=0;entryY=0;entryDx=0;entryDy=5;" parent="MTBBnn2Q58c1l2iHvtrN-1" source="0RmOqdITF_pL-Moo39bk-1" target="0RmOqdITF_pL-Moo39bk-4" edge="1">
          <mxGeometry relative="1" as="geometry">
            <mxPoint x="260" y="275" as="sourcePoint" />
          </mxGeometry>
        </mxCell>
        <mxCell id="0RmOqdITF_pL-Moo39bk-7" value="if token not cached" style="shape=umlFrame;whiteSpace=wrap;html=1;pointerEvents=0;width=125;height=20;" parent="MTBBnn2Q58c1l2iHvtrN-1" vertex="1">
          <mxGeometry x="185" y="180" width="355" height="140" as="geometry" />
        </mxCell>
        <mxCell id="0RmOqdITF_pL-Moo39bk-9" value="Get token (client id, secret, scope)" style="html=1;verticalAlign=bottom;endArrow=block;curved=0;rounded=0;entryX=0;entryY=0;entryDx=0;entryDy=5;" parent="MTBBnn2Q58c1l2iHvtrN-1" source="0RmOqdITF_pL-Moo39bk-1" target="0RmOqdITF_pL-Moo39bk-8" edge="1">
          <mxGeometry relative="1" as="geometry">
            <mxPoint x="390" y="205" as="sourcePoint" />
          </mxGeometry>
        </mxCell>
        <mxCell id="0RmOqdITF_pL-Moo39bk-10" value="access token" style="html=1;verticalAlign=bottom;endArrow=open;dashed=1;endSize=8;curved=0;rounded=0;exitX=0;exitY=1;exitDx=0;exitDy=-5;" parent="MTBBnn2Q58c1l2iHvtrN-1" source="0RmOqdITF_pL-Moo39bk-8" target="0RmOqdITF_pL-Moo39bk-1" edge="1">
          <mxGeometry relative="1" as="geometry">
            <mxPoint x="390" y="275" as="targetPoint" />
          </mxGeometry>
        </mxCell>
        <mxCell id="DG36szIiAkqgeyOre-zb-0" value="" style="html=1;points=[[0,0,0,0,5],[0,1,0,0,-5],[1,0,0,0,5],[1,1,0,0,-5]];perimeter=orthogonalPerimeter;outlineConnect=0;targetShapes=umlLifeline;portConstraint=eastwest;newEdgeStyle={&quot;curved&quot;:0,&quot;rounded&quot;:0};" parent="MTBBnn2Q58c1l2iHvtrN-1" vertex="1">
          <mxGeometry x="215" y="280" width="10" height="30" as="geometry" />
        </mxCell>
        <mxCell id="DG36szIiAkqgeyOre-zb-1" value="cache token" style="html=1;align=left;spacingLeft=2;endArrow=block;rounded=0;edgeStyle=orthogonalEdgeStyle;curved=0;rounded=0;" parent="MTBBnn2Q58c1l2iHvtrN-1" target="DG36szIiAkqgeyOre-zb-0" edge="1">
          <mxGeometry relative="1" as="geometry">
            <mxPoint x="220" y="270" as="sourcePoint" />
            <Array as="points">
              <mxPoint x="220" y="270" />
              <mxPoint x="250" y="270" />
              <mxPoint x="250" y="290" />
            </Array>
          </mxGeometry>
        </mxCell>
      </root>
    </mxGraphModel>
  </diagram>
  <diagram name="send-request-with-certificate" id="o4E1ss7p2MrgFZY0mwYA">
    <mxGraphModel dx="1426" dy="841" grid="1" gridSize="10" guides="1" tooltips="1" connect="1" arrows="1" fold="1" page="1" pageScale="1" pageWidth="827" pageHeight="1169" math="0" shadow="0">
      <root>
        <mxCell id="-4lEJ_geIK8xlLHNkzah-0" />
        <mxCell id="-4lEJ_geIK8xlLHNkzah-1" parent="-4lEJ_geIK8xlLHNkzah-0" />
        <mxCell id="-4lEJ_geIK8xlLHNkzah-2" value="" style="shape=umlLifeline;perimeter=lifelinePerimeter;whiteSpace=wrap;html=1;container=1;dropTarget=0;collapsible=0;recursiveResize=0;outlineConnect=0;portConstraint=eastwest;newEdgeStyle={&quot;curved&quot;:0,&quot;rounded&quot;:0};participant=umlActor;" parent="-4lEJ_geIK8xlLHNkzah-1" vertex="1">
          <mxGeometry x="20" y="80" width="20" height="410" as="geometry" />
        </mxCell>
        <mxCell id="-4lEJ_geIK8xlLHNkzah-3" value="Protected Backend API&lt;div&gt;&lt;i&gt;(API Management)&lt;/i&gt;&lt;/div&gt;" style="shape=umlLifeline;perimeter=lifelinePerimeter;whiteSpace=wrap;html=1;container=1;dropTarget=0;collapsible=0;recursiveResize=0;outlineConnect=0;portConstraint=eastwest;newEdgeStyle={&quot;curved&quot;:0,&quot;rounded&quot;:0};" parent="-4lEJ_geIK8xlLHNkzah-1" vertex="1">
          <mxGeometry x="287.5" y="80" width="132.5" height="410" as="geometry" />
        </mxCell>
        <mxCell id="-4lEJ_geIK8xlLHNkzah-4" value="" style="html=1;points=[[0,0,0,0,5],[0,1,0,0,-5],[1,0,0,0,5],[1,1,0,0,-5]];perimeter=orthogonalPerimeter;outlineConnect=0;targetShapes=umlLifeline;portConstraint=eastwest;newEdgeStyle={&quot;curved&quot;:0,&quot;rounded&quot;:0};" parent="-4lEJ_geIK8xlLHNkzah-3" vertex="1">
          <mxGeometry x="61.25" y="340" width="10" height="40" as="geometry" />
        </mxCell>
        <mxCell id="-4lEJ_geIK8xlLHNkzah-5" value="Backend app registration&lt;div&gt;&lt;i&gt;(Entra ID)&lt;/i&gt;&lt;/div&gt;" style="shape=umlLifeline;perimeter=lifelinePerimeter;whiteSpace=wrap;html=1;container=1;dropTarget=0;collapsible=0;recursiveResize=0;outlineConnect=0;portConstraint=eastwest;newEdgeStyle={&quot;curved&quot;:0,&quot;rounded&quot;:0};" parent="-4lEJ_geIK8xlLHNkzah-1" vertex="1">
          <mxGeometry x="440" y="80" width="147" height="410" as="geometry" />
        </mxCell>
        <mxCell id="-4lEJ_geIK8xlLHNkzah-6" value="" style="html=1;points=[[0,0,0,0,5],[0,1,0,0,-5],[1,0,0,0,5],[1,1,0,0,-5]];perimeter=orthogonalPerimeter;outlineConnect=0;targetShapes=umlLifeline;portConstraint=eastwest;newEdgeStyle={&quot;curved&quot;:0,&quot;rounded&quot;:0};" parent="-4lEJ_geIK8xlLHNkzah-5" vertex="1">
          <mxGeometry x="68.5" y="195" width="10" height="40" as="geometry" />
        </mxCell>
        <mxCell id="-4lEJ_geIK8xlLHNkzah-7" value="Unrotected API&lt;div&gt;&lt;i&gt;(API Management)&lt;/i&gt;&lt;/div&gt;" style="shape=umlLifeline;perimeter=lifelinePerimeter;whiteSpace=wrap;html=1;container=1;dropTarget=0;collapsible=0;recursiveResize=0;outlineConnect=0;portConstraint=eastwest;newEdgeStyle={&quot;curved&quot;:0,&quot;rounded&quot;:0};" parent="-4lEJ_geIK8xlLHNkzah-1" vertex="1">
          <mxGeometry x="160" y="80" width="110" height="410" as="geometry" />
        </mxCell>
        <mxCell id="-4lEJ_geIK8xlLHNkzah-8" value="" style="html=1;points=[[0,0,0,0,5],[0,1,0,0,-5],[1,0,0,0,5],[1,1,0,0,-5]];perimeter=orthogonalPerimeter;outlineConnect=0;targetShapes=umlLifeline;portConstraint=eastwest;newEdgeStyle={&quot;curved&quot;:0,&quot;rounded&quot;:0};" parent="-4lEJ_geIK8xlLHNkzah-7" vertex="1">
          <mxGeometry x="50" y="80" width="10" height="310" as="geometry" />
        </mxCell>
        <mxCell id="-4lEJ_geIK8xlLHNkzah-9" value="GET /send-request-with-certificate" style="html=1;verticalAlign=bottom;endArrow=block;curved=0;rounded=0;entryX=0;entryY=0;entryDx=0;entryDy=5;" parent="-4lEJ_geIK8xlLHNkzah-1" source="-4lEJ_geIK8xlLHNkzah-2" target="-4lEJ_geIK8xlLHNkzah-8" edge="1">
          <mxGeometry x="-0.0041" relative="1" as="geometry">
            <mxPoint x="140" y="165" as="sourcePoint" />
            <mxPoint as="offset" />
          </mxGeometry>
        </mxCell>
        <mxCell id="-4lEJ_geIK8xlLHNkzah-10" value="200 OK" style="html=1;verticalAlign=bottom;endArrow=open;dashed=1;endSize=8;curved=0;rounded=0;exitX=0;exitY=1;exitDx=0;exitDy=-5;" parent="-4lEJ_geIK8xlLHNkzah-1" source="-4lEJ_geIK8xlLHNkzah-8" target="-4lEJ_geIK8xlLHNkzah-2" edge="1">
          <mxGeometry relative="1" as="geometry">
            <mxPoint x="140" y="235" as="targetPoint" />
          </mxGeometry>
        </mxCell>
        <mxCell id="-4lEJ_geIK8xlLHNkzah-11" value="200 OK" style="html=1;verticalAlign=bottom;endArrow=open;dashed=1;endSize=8;curved=0;rounded=0;exitX=0;exitY=1;exitDx=0;exitDy=-5;" parent="-4lEJ_geIK8xlLHNkzah-1" source="-4lEJ_geIK8xlLHNkzah-4" target="-4lEJ_geIK8xlLHNkzah-8" edge="1">
          <mxGeometry relative="1" as="geometry">
            <mxPoint x="260" y="345" as="targetPoint" />
          </mxGeometry>
        </mxCell>
        <mxCell id="-4lEJ_geIK8xlLHNkzah-12" value="GET (access token)" style="html=1;verticalAlign=bottom;endArrow=block;curved=0;rounded=0;entryX=0;entryY=0;entryDx=0;entryDy=5;" parent="-4lEJ_geIK8xlLHNkzah-1" source="-4lEJ_geIK8xlLHNkzah-8" target="-4lEJ_geIK8xlLHNkzah-4" edge="1">
          <mxGeometry relative="1" as="geometry">
            <mxPoint x="260" y="275" as="sourcePoint" />
          </mxGeometry>
        </mxCell>
        <mxCell id="-4lEJ_geIK8xlLHNkzah-13" value="if token not cached" style="shape=umlFrame;whiteSpace=wrap;html=1;pointerEvents=0;width=125;height=20;" parent="-4lEJ_geIK8xlLHNkzah-1" vertex="1">
          <mxGeometry x="185" y="180" width="355" height="210" as="geometry" />
        </mxCell>
        <mxCell id="-4lEJ_geIK8xlLHNkzah-14" value="Get token (client id, assertion, scope)" style="html=1;verticalAlign=bottom;endArrow=block;curved=0;rounded=0;entryX=0;entryY=0;entryDx=0;entryDy=5;" parent="-4lEJ_geIK8xlLHNkzah-1" target="-4lEJ_geIK8xlLHNkzah-6" edge="1">
          <mxGeometry relative="1" as="geometry">
            <mxPoint x="220" y="280" as="sourcePoint" />
          </mxGeometry>
        </mxCell>
        <mxCell id="-4lEJ_geIK8xlLHNkzah-15" value="access token" style="html=1;verticalAlign=bottom;endArrow=open;dashed=1;endSize=8;curved=0;rounded=0;exitX=0;exitY=1;exitDx=0;exitDy=-5;" parent="-4lEJ_geIK8xlLHNkzah-1" source="-4lEJ_geIK8xlLHNkzah-6" edge="1">
          <mxGeometry relative="1" as="geometry">
            <mxPoint x="220" y="310" as="targetPoint" />
          </mxGeometry>
        </mxCell>
        <mxCell id="-4lEJ_geIK8xlLHNkzah-16" value="" style="html=1;points=[[0,0,0,0,5],[0,1,0,0,-5],[1,0,0,0,5],[1,1,0,0,-5]];perimeter=orthogonalPerimeter;outlineConnect=0;targetShapes=umlLifeline;portConstraint=eastwest;newEdgeStyle={&quot;curved&quot;:0,&quot;rounded&quot;:0};" parent="-4lEJ_geIK8xlLHNkzah-1" vertex="1">
          <mxGeometry x="215" y="344" width="10" height="30" as="geometry" />
        </mxCell>
        <mxCell id="-4lEJ_geIK8xlLHNkzah-17" value="cache token" style="html=1;align=left;spacingLeft=2;endArrow=block;rounded=0;edgeStyle=orthogonalEdgeStyle;curved=0;rounded=0;" parent="-4lEJ_geIK8xlLHNkzah-1" target="-4lEJ_geIK8xlLHNkzah-16" edge="1">
          <mxGeometry relative="1" as="geometry">
            <mxPoint x="220" y="334" as="sourcePoint" />
            <Array as="points">
              <mxPoint x="220" y="334" />
              <mxPoint x="250" y="334" />
              <mxPoint x="250" y="354" />
            </Array>
          </mxGeometry>
        </mxCell>
        <mxCell id="-qjPRl6cXbTOUIKnWGcD-0" value="" style="html=1;points=[[0,0,0,0,5],[0,1,0,0,-5],[1,0,0,0,5],[1,1,0,0,-5]];perimeter=orthogonalPerimeter;outlineConnect=0;targetShapes=umlLifeline;portConstraint=eastwest;newEdgeStyle={&quot;curved&quot;:0,&quot;rounded&quot;:0};" parent="-4lEJ_geIK8xlLHNkzah-1" vertex="1">
          <mxGeometry x="215" y="230" width="10" height="30" as="geometry" />
        </mxCell>
        <mxCell id="-qjPRl6cXbTOUIKnWGcD-1" value="generate JWT assertion&lt;div&gt;and sign with certificate&lt;/div&gt;" style="html=1;align=left;spacingLeft=2;endArrow=block;rounded=0;edgeStyle=orthogonalEdgeStyle;curved=0;rounded=0;" parent="-4lEJ_geIK8xlLHNkzah-1" target="-qjPRl6cXbTOUIKnWGcD-0" edge="1">
          <mxGeometry relative="1" as="geometry">
            <mxPoint x="220" y="210" as="sourcePoint" />
            <Array as="points">
              <mxPoint x="220" y="220" />
              <mxPoint x="250" y="220" />
              <mxPoint x="250" y="240" />
            </Array>
          </mxGeometry>
        </mxCell>
      </root>
    </mxGraphModel>
  </diagram>
  <diagram name="overview-credential-manager" id="3I0w0jaMaYotk3BpNiyI">
    <mxGraphModel dx="1426" dy="841" grid="1" gridSize="10" guides="1" tooltips="1" connect="1" arrows="1" fold="1" page="1" pageScale="1" pageWidth="827" pageHeight="1169" math="0" shadow="0">
      <root>
        <mxCell id="7LoG_nnSIzDE0TpUXg6_-0" />
        <mxCell id="7LoG_nnSIzDE0TpUXg6_-1" parent="7LoG_nnSIzDE0TpUXg6_-0" />
        <mxCell id="7LoG_nnSIzDE0TpUXg6_-3" value="" style="rounded=1;whiteSpace=wrap;html=1;dashed=1;" vertex="1" parent="7LoG_nnSIzDE0TpUXg6_-1">
          <mxGeometry x="280" y="519.88" width="320" height="160" as="geometry" />
        </mxCell>
        <mxCell id="7LoG_nnSIzDE0TpUXg6_-4" value="" style="rounded=1;whiteSpace=wrap;html=1;dashed=1;" vertex="1" parent="7LoG_nnSIzDE0TpUXg6_-1">
          <mxGeometry x="280" y="80" width="320" height="330" as="geometry" />
        </mxCell>
        <mxCell id="7LoG_nnSIzDE0TpUXg6_-5" value="API Management" style="image;aspect=fixed;html=1;points=[];align=center;fontSize=12;image=img/lib/azure2/app_services/API_Management_Services.svg;imageBackground=default;" vertex="1" parent="7LoG_nnSIzDE0TpUXg6_-1">
          <mxGeometry x="407.5" y="40" width="65" height="60" as="geometry" />
        </mxCell>
        <mxCell id="7LoG_nnSIzDE0TpUXg6_-6" value="Protected&#xa;Backend API" style="shape=image;verticalLabelPosition=bottom;labelBackgroundColor=default;verticalAlign=top;aspect=fixed;imageAspect=0;image=data:image/svg+xml,PHN2ZyB4bWxucz0iaHR0cDovL3d3dy53My5vcmcvMjAwMC9zdmciIHZpZXdCb3g9IjAgMCA1MCA1MCI+JiN4YTsgICAgPHBhdGggZmlsbD0iIzU3YTMwMCIgZD0iTTAgMjAuODRoMTkuNTV2OC4zMkgweiIvPiYjeGE7ICAgIDxwYXRoIGZpbGw9IiM1OWI0ZDkiIGQ9Ik00MS42OCAyMC44NGgxMC4yNnY4LjMySDQxLjY4eiIvPiYjeGE7ICAgIDxjaXJjbGUgZmlsbD0iIzU3YTMwMCIgcj0iOS40NiIgY3k9IjI1IiBjeD0iMjAuMTIiLz4mI3hhOyAgICA8cGF0aCBmaWxsPSIjNTliNGQ5IiBkPSJNMjAuMTIuNDh2MTAuOTZhMSAxIDAgMCAxIDAgMjcuMTR2MTAuOTZhMSAxIDAgMCAwIDAtNDkuMDVaIi8+JiN4YTs8L3N2Zz4=;imageBackground=none;fontStyle=1" vertex="1" parent="7LoG_nnSIzDE0TpUXg6_-1">
          <mxGeometry x="510" y="160" width="50" height="50" as="geometry" />
        </mxCell>
        <mxCell id="7LoG_nnSIzDE0TpUXg6_-7" value="2b. retrieves&amp;nbsp;&lt;div&gt;token for&lt;/div&gt;" style="rounded=0;orthogonalLoop=1;jettySize=auto;html=1;" edge="1" parent="7LoG_nnSIzDE0TpUXg6_-1" source="knUNqGE_XR-kPrGtURpo-0" target="7LoG_nnSIzDE0TpUXg6_-22">
          <mxGeometry x="-0.0007" relative="1" as="geometry">
            <mxPoint x="330" y="340" as="sourcePoint" />
            <mxPoint as="offset" />
          </mxGeometry>
        </mxCell>
        <mxCell id="7LoG_nnSIzDE0TpUXg6_-8" value="2a. retrieves token&lt;div&gt;using client credentials&lt;/div&gt;&lt;div&gt;from&lt;/div&gt;" style="rounded=0;orthogonalLoop=1;jettySize=auto;html=1;align=center;" edge="1" parent="7LoG_nnSIzDE0TpUXg6_-1" source="knUNqGE_XR-kPrGtURpo-0" target="7LoG_nnSIzDE0TpUXg6_-12">
          <mxGeometry x="0.0244" y="-5" relative="1" as="geometry">
            <mxPoint x="270" y="350" as="sourcePoint" />
            <mxPoint as="offset" />
          </mxGeometry>
        </mxCell>
        <mxCell id="7LoG_nnSIzDE0TpUXg6_-9" value="3. calls API&lt;div&gt;with Bearer token&lt;/div&gt;" style="edgeStyle=orthogonalEdgeStyle;rounded=0;orthogonalLoop=1;jettySize=auto;html=1;" edge="1" parent="7LoG_nnSIzDE0TpUXg6_-1" source="7LoG_nnSIzDE0TpUXg6_-14" target="7LoG_nnSIzDE0TpUXg6_-6">
          <mxGeometry x="-0.0769" y="25" relative="1" as="geometry">
            <mxPoint as="offset" />
          </mxGeometry>
        </mxCell>
        <mxCell id="7LoG_nnSIzDE0TpUXg6_-10" value="Client" style="verticalLabelPosition=bottom;html=1;verticalAlign=top;align=center;strokeColor=none;fillColor=#00BEF2;shape=mxgraph.azure.user;fontStyle=0;labelBackgroundColor=default;" vertex="1" parent="7LoG_nnSIzDE0TpUXg6_-1">
          <mxGeometry x="110" y="160" width="47.5" height="50" as="geometry" />
        </mxCell>
        <mxCell id="7LoG_nnSIzDE0TpUXg6_-12" value="Client&lt;div&gt;&lt;span style=&quot;font-weight: normal;&quot;&gt;(app registration)&lt;/span&gt;&lt;/div&gt;" style="image;sketch=0;aspect=fixed;html=1;points=[];align=center;fontSize=12;image=img/lib/mscae/App_Registrations.svg;fontStyle=1;labelBackgroundColor=none;" vertex="1" parent="7LoG_nnSIzDE0TpUXg6_-1">
          <mxGeometry x="330" y="560" width="50" height="50" as="geometry" />
        </mxCell>
        <mxCell id="7LoG_nnSIzDE0TpUXg6_-13" value="1. call API&lt;div&gt;without authentication&lt;/div&gt;" style="edgeStyle=orthogonalEdgeStyle;rounded=0;orthogonalLoop=1;jettySize=auto;html=1;" edge="1" parent="7LoG_nnSIzDE0TpUXg6_-1" source="7LoG_nnSIzDE0TpUXg6_-10" target="7LoG_nnSIzDE0TpUXg6_-14">
          <mxGeometry x="-0.3454" y="25" relative="1" as="geometry">
            <mxPoint as="offset" />
            <mxPoint x="158" y="185" as="sourcePoint" />
            <mxPoint x="545" y="185" as="targetPoint" />
          </mxGeometry>
        </mxCell>
        <mxCell id="knUNqGE_XR-kPrGtURpo-1" value="2. retrieve token" style="rounded=0;orthogonalLoop=1;jettySize=auto;html=1;" edge="1" parent="7LoG_nnSIzDE0TpUXg6_-1" source="7LoG_nnSIzDE0TpUXg6_-14" target="knUNqGE_XR-kPrGtURpo-0">
          <mxGeometry x="0.4286" relative="1" as="geometry">
            <mxPoint as="offset" />
          </mxGeometry>
        </mxCell>
        <mxCell id="7LoG_nnSIzDE0TpUXg6_-14" value="Unprotected API" style="shape=image;verticalLabelPosition=bottom;labelBackgroundColor=default;verticalAlign=top;aspect=fixed;imageAspect=0;image=data:image/svg+xml,PHN2ZyB4bWxucz0iaHR0cDovL3d3dy53My5vcmcvMjAwMC9zdmciIHZpZXdCb3g9IjAgMCA1MCA1MCI+JiN4YTsgICAgPHBhdGggZmlsbD0iIzU3YTMwMCIgZD0iTTAgMjAuODRoMTkuNTV2OC4zMkgweiIvPiYjeGE7ICAgIDxwYXRoIGZpbGw9IiM1OWI0ZDkiIGQ9Ik00MS42OCAyMC44NGgxMC4yNnY4LjMySDQxLjY4eiIvPiYjeGE7ICAgIDxjaXJjbGUgZmlsbD0iIzU3YTMwMCIgcj0iOS40NiIgY3k9IjI1IiBjeD0iMjAuMTIiLz4mI3hhOyAgICA8cGF0aCBmaWxsPSIjNTliNGQ5IiBkPSJNMjAuMTIuNDh2MTAuOTZhMSAxIDAgMCAxIDAgMjcuMTR2MTAuOTZhMSAxIDAgMCAwIDAtNDkuMDVaIi8+JiN4YTs8L3N2Zz4=;imageBackground=none;fontStyle=1" vertex="1" parent="7LoG_nnSIzDE0TpUXg6_-1">
          <mxGeometry x="330" y="160" width="50" height="50" as="geometry" />
        </mxCell>
        <mxCell id="7LoG_nnSIzDE0TpUXg6_-15" value="Microsoft Entra ID" style="image;aspect=fixed;html=1;points=[];align=center;fontSize=12;image=img/lib/azure2/other/Entra_Identity.svg;" vertex="1" parent="7LoG_nnSIzDE0TpUXg6_-1">
          <mxGeometry x="407.5" y="489" width="68" height="60.440000000000005" as="geometry" />
        </mxCell>
        <mxCell id="7LoG_nnSIzDE0TpUXg6_-22" value="Backend&lt;div&gt;&lt;span style=&quot;font-weight: normal;&quot;&gt;(app registration)&lt;/span&gt;&lt;/div&gt;" style="image;sketch=0;aspect=fixed;html=1;points=[];align=center;fontSize=12;image=img/lib/mscae/App_Registrations.svg;fontStyle=1;labelBackgroundColor=none;" vertex="1" parent="7LoG_nnSIzDE0TpUXg6_-1">
          <mxGeometry x="510" y="559.88" width="50" height="50" as="geometry" />
        </mxCell>
        <mxCell id="knUNqGE_XR-kPrGtURpo-0" value="Credential&#xa;Manager" style="shape=image;verticalLabelPosition=bottom;labelBackgroundColor=default;verticalAlign=top;aspect=fixed;imageAspect=0;image=data:image/png,iVBORw0KGgoAAAANSUhEUgAAAGsAAAB9CAYAAAClMJ2KAAAAAXNSR0IArs4c6QAAAARnQU1BAACxjwv8YQUAAAAJcEhZcwAADsMAAA7DAcdvqGQAACJCSURBVHhe7Z3ZkxzHnd8/WUdX391zHxjcBEgQFEFS5PKUSEorrbSxfvCD/z2H7Qe/2BGOtdcbq5VXIgWKlySSIA6COAczmPvsu+70Q1bNVPf09BwYYGa0/EZkdB1ZVZn5zV/mL3/5y2whpZT8gGMBrfPCDzi6+IGsY4QfyDpG+IGsY4QfyDpGEMddG/SlxA6g5kuqnsSTEl+CE6pspTRICYGhCwqGoGgI8rrofM2xwLEhSwKhhLovmXdC5u2AJTuk4oa4IXgheFIiZRxXZUsTAiFUE2IIMDRBzhDkTY1BS2M0rTGR0UhrAk3AUabxyJMVSGgEkplWwINGwEwjoOZJnFDiheCHkt1mQAiBlBItIs3UBCkNSinBSEbnStFgyNJIaYKjKHxHlqwgkqKpVsB3VZ+ZRkDdl7ihkp79ICarE5oAUxPkDcFY1uBKn8HphLQdFRw5siTQCiRzdsiNis/9mk/Nk3uSIHoQ0w1xXAHomqBoCi4WTV4u6QxZGpkjImZHiqxAwroXcrsWcH3dZ8kOcIO9kXQQEChJ67cEL/eZ/KhoUDK1Q5eyI0OWHUhm7YBvKz7fV3waviRS6HaNTmnqPN8rNAEZXXC+YPBGv8lo+nCl7NDJCiVUfMn3NZ/r6x5zrRA3ONQkQQfRKU0wmtX4UdnkYl6nbGqHooAcGllx3zTTCviuqpSIhhfuWZoAhFBquakJDE1s9kFCfSgEvFAShBI/VN/eK3QBRVPjfEHnUslgLK2T15+tAvLMyYpJmrVDHjZ87tUCFlohwR4UCBE1T6WURtnUKBqCtA5pQ5DShIoQ9T0AgZQ4gcQLJS1fUvMla66k4oXYgdIud9Nkqr4MhjI65/I6Z3L6MyXtmZAlATeUrLiSuVbAgh0y1QxYtEO8PajiWlS7x7M6J7MaQ5ZGf0qjZAoMASC2HdSqT6ixWc2XrLghK07I41bIZCOg7oV7SoelC/pTGhNZnYmsznBao9/USOtPb2D9VMgKJLRCZf5Z90LWXMmaG7Jshyw64UZzt9sPCyBnapzOaVwsGJzM6pRNgSmUyWE/hSMBKWHFC5luBNypBTxs+DS9PUg4anCdNxVxAymNgbRGX0pQNFUlyh7gAHtPZEmUSWe2FdIKJF5U4F4ocUNwQ2j5IU6g7HUNX9IIJA0/pLUP7Y6orxhK61wuGbxQ1Bmy9EiKDg6hhGU35E7N59q6x0Jrf32nJiBjKHNWVle/GV1Jm6kJ0rogpYMpVLNpRQPxsqni75StXZPVCCTXKz5TjYAVJ8STklhpCyT4EoLIBBRENrongQCyhuBMXuflssnprE7O2DlD+4WMhg/TrYA/rXrcqwV4B6CVCgG6EOiaIsnQlJ1SKUUCS4N+S+P5osG5nN6TtF2RVfFCPl/xuLHuU+nQ2DY1r5076F4QQjVLQgh0IRmwdF4qGVwqGgykNMxnNJkTSFhyQ25XfT5dcrGDuMncf95ibFdGhgb9ls6VsskrZYOi2Z2wHclqBJJPl12+XvOouRK2+eBBIB6EnsrrvFI2ObNDTXtakJHGOtnw+XrdZ7IebGiNTwtCQMHUeHswxWt9BrkuHV1PsiRwbd3n6pLLkh3s2I5vV3N2QmxIHUlrvNxncDFvUDA1zK3pfaYIJKy6Id/XfL5d91m2Q3y5v753txhMa/xqzOJi3tgyHOhJViOQ/G7B4dqajxP2bgr2SpQANE1gCRjM6LxY1LmYNyin1NTFIfO0ARkNO1bdkDu1gJsVn1Un3Oibd4vdlo8m4IMRi7cGTLId0tWTrMlmwEeLLpN1Hz/svLt3xJ2tKZTyMJZVqvhzOZ2soUw4R4WkTshI6614kqlmwN2az2wroBWoic+9Dep7E/dC2eAXIxbDltZWHj3JutsI+HjBYboRbGh+e4EWk6Mp+1pGV5bss3lFUDmloUXxjgtkND7zpWTNkzxsBExGGnLTVxLnR1K32zLrJO9sweDvRi1OZJ6ArM6XEk0lWLpSR7VIHTU0ZVHIGMokNBxNnY9Gs7B/jWgGknk7ZNENWXFDVu2QhqcmSwOpxnIxga4Ev8fUz9miwa9GLcbTT0BWEkIIBJJzRZNLRZ2crvqakiko6IpAI7LR/XuFL6EehDR8iR1I6r4ydd2r+zyqBXiRptIpBNtJVu/RS/S86FLoUko0YCyj8UbZ5KWiwfN5nVFLI2eIf/dEETnolA2NE2md8zmDKyWD18sG42m9bdy4RV42bdFt6E1WhC0v+wEHhm6CoDrGzou7JKsXunzqB+yERKFtJwjdru6ZrM6a0O2lP+DpYE9kJe2ARwmBVAPXVqCCHUR+hVLd+2vBnsiKRTYpuodNmxtKFpyQu/WAaxWPaxWPG1Wf27WAR42AOTtgzZWRz6Ga4j907LMC7UDWbt66mzhPB16orAlfrHhcXXT545LHH5c8PllyuLrk8PGiy0cLLn9YdvnLms/dus+CrVTp4yhxO5DVBR0d4mHmedEJ+WbN51bF43EzYM0JWXNClm3JfDPkYd3ndtXn61WPL1Zcri65XF10+WbdZ7oZUPFC/EPJwE4fVQ6nndiBrDa1ZQtRh4lQwlQz4FHDx45LPE5jMq1SefNW3ZDHjYBbFY/Pl10+WnT4ctVjqhnQ6mFNeGpIfrBLurulaAeyonn7HiR1qwHPAr6UVFzlLiDjTEaKz0ZqE4TFwQ8la07A/ZrPV6senyy5XK/4LDrh4TSN25bt1pLdgawekHIX4vz0IIRQy3mSF6Wqj1uzuRVSQs0NeVDz+WzJ4fNll0fNAO9ZaiDbEtUd+yMr8ZHurevThyFgKK1RMNX6qxh7TY0fSpbtkJvrHn9cdrld87GfCWE7EbX1/o5kxW3n1kcPFwI4ndU5XzDIG+2E9UK3fEig6UseRH4Xtyo+7jMhbG/YkawYybJoz3C37D8blE2NK30mrw+kuFg0OJ3XGc0q3718SnkSdUv3din2Qslc0+fzZYcbVe/IEbYjWd0qbLdrhwFNwFha541+kw+GLT4YsXh/JM37IxbvD1u8O5TiSr/JiayOkZhH25L+BHu+hAU74LMll++q3jNXOqSMFKYu2JGs7aBe2nn12UOPvIJOZHTO5QwuFQxeLpm83pfiJ0MWHw5b/GzU4ifDKc4WdFIdUxNSyi3sBSEs2sp/cKoZtN98QmgC8oZy8oy/32kZSmndp5h2JEvGoQszIo5wyBBRIejRahK1ogTSuqDf0riQN3hnMMXfjli8M2QxktE3XAmSE39qCKCuByHMNX2+WnNZO0AVUReCYUtTLnZb+UDXBIOp6H7HvR3JAtq1vzZN8OgjJjKjC87kDN4ZSvHzUYtzBQND6yAKpVDFtd0J4H5VrRs7qOZQFzCS1nmxbJJPaLJSSjQhmMjpXCgYZLv4iO+OrAidGTsedLUjpwsuFgw+HEnxUr9JpkuhxJBSUvdDbld8Hh1gc5jTBa/1mbwzaDGRMyhGCxpeHVB978lcd3/+3j4YdZ+P5h2mG37XmmVo8M5oml8MWcfKQ4nEYoSriw631j3sbhmMkDU0Xu03+XAkTUbvvLs/SNTCjTVXrRHTBZRTGkVT60oUe5UsuvVd2+fxmSEMIQwkgScJfEm4C5dZTcBQSuOtwRRnCjpmj9pmB2o92aOm33lr3xAoReNkVjV75/IG/antiWI/ZB2ViUcZgueENKsBa3MOiw9tZu80WbjfYm3GoVnx8ewQ2YM4IWAkrfHWgMVwRt/SoccVM5SwaodM1QPsHu972thFM2h3dUUjbgZH0vxi+Nk1g1KC74Y0Kz6rMw5r8y5OPSAIJDJQBGiGwMpqFIdMBk6myfebpNLb10s7kHy56vLJgkPdC4Gtmpqhwdm8wQejac5kD6gt3CO2z0GEJEdtmuAhjLOkBLvhM3e3yZ0vKkx+W2NpqkVlyaG+5tKoutQrLtUVl+XHNlM363z/aYXH39VprHvIbTRwSxNcLpqMZnX0aK+nWCOM8xyEapHC4i4WaDwt7EhWrO3LxBqs+PhZQkpo1X1m7zaYvFFlabpFo+rhuQF+EOL7yRDgeQGths/qfIuH31R58HWV+rrX+VqImsOiKXixZGJ1WWojpSSUkqYvWbFDmt2amWeAHcnaDj1az6cCzw5YfNhk+rs664sOruPj+8GW4HkqxMeuG1CruDy+W2fquxr2Niq4oQnO5HTKlthWa/ICtXB87ZCMhrsga6s5JHkvkBI7pHcIJHao1hlvubeL0PJClhdsZu7XWV+yO4iKJCk+D6LghwRBqI69gGbVZeZOjaWpZtfmUAAlU+NswWC7HimUkoobKHW7Szr3G9xQKTE7YUcF4/fzNtN1n2DL25R961TB4FzO2NIhtyH5aK9426EZ4N2t0bhTx2v4u+or48/IxLFmCE6/WOSl9wbJlcxEbAVfwvdVj/8x2cQNO9wYoolOtc7ZYLTbgCv5sT1AixaD91s6J7K6mvLpjLQzWR6/n3fayIrTE//qmlpvlUQvbuJ73Qqz8zyOa6159N2pkllyEFsqze4Qv7M4aPHKB8OculTsiKG+N98K+M/36jS2sQcK1NRLsmvrzFN8rdd5JzRN0JfSuNyX4kqfSdlsX5TArsiaU5KlFtN1UrWpaMhNF4guNb9bdrYi1sKiMxU9kGQWbQa/r5KuuBtf33hmm4LY7ou6ofHKB8P86N0hRJfxxqoT8l8f1llqBlFaNuNsn7+d0FluW98louyWLZ2fj6V5qWxuWR61Y58lN1qDOIXtv5vqbbuqq+7HIUbyPHl/8/m2uFJCECJbPr4T4Hshnteu+Xnxrxfg+SGeH+Al4m1c89V9x/Zp1Dy8bZQEXYOc2V4l4nwl87pTaI9LdC2ujO3HoKwuoVTOPA/qHrUuPnI9yUqWXUyaSkTytz1Esbdcbw/qfvt7O94TvyuQSDcg9PyE8tAlBErR8P1IqfA7lZBNRcRp+fjbNnNgIhLpjDbs6pLWbtfi52Ik47Zfay+j+HoYStYje2EnXT3J0gVoYpP9ZC3ZFOuYVRWklNHlZNzO42TcxLVE6jemKqLfbUnqCEEULwhCgiAgSFyPg+zhRC2j6f3NApfKZJVMZ/J6R57a87r52y5lMTqZVHE6dZsYPckaTRsMx9vvxCRshGgvuFgPTtzbIKztmc7no5B8dgObcaUQBLrAh+6ERdIWRL9e4lp8HETHsXpvZQzSWSP5wQ3IaJHDljSSzEd0f+PadiFRDlueT75jG3Y60JOsrCG4VLYYyRjoQklSXOPa351MeURW8q6MU9953hnie/GkoEToApnR8HWJFzd1MWnRb3Ig3BmSJPl+QCqrke8z0bpYKoi2u6vaSrlob85UelS5xvc6070ZdzN+dH9DWpPPbjyx+SMhq6lF853oqQ0Sb9zhBHy54nCn4lJ3w40KskXVihHdi28n40aUQ2TIij8eH3d7hooD11fQ71UQLX+rKtUFKkpcwTYfOfNCHx/+x7OMnS50PKEGppN1n/9yp4KzjUlJJDahRMRek2IjT+psMy8bb5GAUFdtTykT2+Gt0QwfjmUodzDWhb926NGUeEYXWLrafDGVPO4WEvHM5Hni2OpyvHEtDtEzpq6hd/ok9MgsXW7H55ou0PTts93dGLUJEZmmuuUpFW0hkcyL1RHH1LZa9DshEvW07fpOknUU4LR8bv15ic9+O83SXKO9BWmrw5E4R2IZj9uUARrSWZ33fn2ad391umtpOIHkkyWb3z1u4gfhpjhG0AQMZ3Q+HM/ySr/Vdm+3WHdD/tudKjPxRGZS7CMqPhjP8pOxDHljj5J1FGBlDE4/X+L8i2UyOZ0g3NTslEruR7ZAZQeMjz1PaYWeF4CQTJwvce5yf1eiAOxQMlX3CAKlNEmpOv74VwNyhhaNw/aOQMJCK8AJQ0VMLCeJYyFgwNLJdpH+rVeOKPqHs7z4xginLpRIWdqGiq40PzW26qYJ+n6ApsPE+SJv/e0Eoye39lVEBTnb9JmueJt9cqRMxNRoQNnSKJtd7IK7QCglM02PVmKM186ZJGsIrG3m9o8NWQAnzhR5+5eneeG1IfLlFBK5QVqsEW5ohkFAGEpMS+PcpT7e/4cznLvU39mybaDhh1xfc7CDcIu2Fmt3KR0GLZ1S0lN0D/AlzDcDnEgzVCTFx+p7JUsn28UuyHEjS9MFpy+U+eA/nOPNn53k9MUypYE0ZkpDaJF9TVPx8sUUY2fyvPruOL/4Txc49+JAV1sgqL2WHtV9Hq67apuejaGQIk5KVVB9KZ2RrEFqm/fshIYXstry8Ta+kVDjo/MBS3k4dWPrWCgY3eC5AYszNR7dW2duqkat4uJ7AYYhSFkGIxN5Tj3Xx6nzZVLp7adwQgnLTsC/TNe5veqorVZjfYWoEwEyOrw8mObDEzkGrL03g6GEv6zY/HaqzpoTbQ8ajV1j3UgX8P6JHD8dy5LrUC44CLKi7xwqAj+k1fCwbR8rbWClDSVt2zEUQUqoeiFfLrX4dLapnGXaiFLHItoT8SfjOf5mKLOv3aTdUPKPk3W+WWptWkg6ULA0fn0qz2uD6cgI0Y6t9O0SbiipeyEVJ6TuqR2nn4z2/UM3NPIli8GRHIWSRcrSdyYKRdS1FZuvFlub81cbeYh7fompqb9qOpU390UUwGIrYKHhKclNfiMRhjMGA2lj293p90VW0w+5te7w8WyD3z2u8/FsgxtrNutucGiE7QWhhIobcG3F5rP5JstNnzDqP5KdvYxaxFJK40I5xXB6780fkaZ5a81hqdX5nU1tUBeqQgylNxdNdGLPZLmB5Ktlm99PN/jDTINP59XvR48b/GmxRcXbyQZweJDxJictn78s2XweESWTpRaFmDBLF5wtmlwsWT29dnthxQ6YrDpKZd+oze1SlU9pjGSNnv8itGeyJusen881mak5+IHyePWDkLm6x58XmtxadfD3OfX+NOFFq/S/X3f5w2yDz+YaLDU8wjCePdjUzqSUyDBEQzKWM/jxUIb+fSgVRFJ1p+Kw0PAJwki7DFW5xUFIGMvqjGcNtB7N957JurVqs9KKHCajDBIlYN32ublis2QfDekKJNS9kMWWz511h6uzdX43VeXaYpO1piq8WIo2pUvlSSAYSOtcGcxwqrDVuWa3WLF97qzZ1BwlwW1NbRTShmAiZzLYowlkP2RVnMhVuaNtl9HK99m6y+01e1ur9dOAF0rWnYAl22eh5TPb8Jiqudxdd/hyocm/TtX47aMqf55rMlV1sb1o4NtReHEQQNHSeH0ky48G0l1XIe4GTiC5uWozXXWVrTEuKKkKLW4RB9I6JwupHcdve1bd/++jKn+crtGKfAQ686EJOFdO88szRc4XU9voNQeHmhfyqOYwWXWpe+pfg2wvxPYlThDS9EIaftj2VxWbOW73LJbRgra8pfPKcJafTxQo7tNaAXCv4vCbySoP1h3CLfZa9W1L13hjLMfPTuYppbYujkhizym5PJCmYOmISLWNJ9VkdByEktmaw3crLWrbOKUcFOpeyLXlJr97VOOLmTrXFhrcWGxxZ6XFw3WbmarLWsvHiSRpszVob/KSElVK67w6lOW9sfwTEVX3Q26v2szWXbWNeIf0xk3gYEbnQtkib3Q3MSWx59RMZE2e70+jJ5z3O0lrugG3V1rcXbc3Nu19GnhYdfhqvsnjqkPdDWh5IY4f4EeeQkR2NxHPziZD1B7FadaQDGUN3hzL8/5EnsF9qulEs8331m3urLZoucHGN9vKS0JKh9OlFCcLJvoOTSD7IcvQBG+M5ChaeltmZVwAUUEt1l2+XWww11BW7IOGH0pmay5LDRcvNr5K9f3YwSVO02YBbQ1IianB6ZLFexMF3h7NUrb0Lc37XrDQ9Lm+2GSh7rWNqzbSF6WrP23wQl+a3C6kiv2QBXAiZ3J5MNPhl9EuXV4Qcn/N5vpyk6p78NphIKHpBbhBuGVAu9sggP6MwSsjWX55psjrw1kKO/QbO6HmBny72OTuagvHjx1F26UYKcnoguf705wupHY9ftsXWZqAt8byjOYNRFxj4oTEfZmUNNyAm4tNHqw7B94cGhpkjGhZZyINccG0XZMJd7K4b7J0XhrM8PPTJf7uTJkL5TSZXdbw7eAGkjvrNjeXG9SdiKjOgETX4EQxxZXhLLlunjHbYPcxOzCWM/npySKWoW3WmA3vH5BSKRsLdZc/z9WYqbk9nUT2Cl0IThYtBjKGsrd2kRwV1D2iLcHK6UiSzpb59fk+3hzNMZiOvbf2j0BKpusO38w3mKu5+PEAOPp+fIyU5FM6PxrMMpIxew6CO7Fn1T2Jph/yv++t8tl0ddtF10KAZer8eDTPh6dKDGfNJ+oPkmj6IX+er/PZ4yqLDQ8/jI2x6gNCQMrQ6MuYDGUNRrIpRvMmp0sWg2mz5wB0r5hveFydrvL1fJ2666t+Olkk0bdSmsYrY3l+ebbMcMbY0eCcxBORJSU8rrv891uLPF53ohqskEyCEIJS2uC9UyXePlF44n4hiZoXMFVxmKw4rLbUFhCmLsiZgrypZl2LaYP+tEGfZZDpMk/0JJBAxfH583ydT6erLDfcTY7igyizmhCc7svwq/N9XCind91XxXgisoisB1/O1/in71eo2ZHHjthaq3QhGC1YvHeqxKsjOXLmwRFGNAvb8EMCKTGiP8PMGJpaI9wZ+YAgNxSKBp9PV3hc620XLadNfn6ujzfHC2T3UWn2/kQHTE3w0kCW10YLmHrE0gb/qq+IB8vzNZvPpyvcXm7hHMQfciWQMzWGMwZjWZOhtEHB1DGeIlEAth9yf63FV3O1yLAtN/Sbzc5bnac0jRcGs1wayPS0rPfCE5MFUEjp/M2JAhcGMtFuX3GnusmblBI/kMxUHb6YqfCoevAa4rOEE4RMVWz+Mlvj0VoL12+3kmxwFSk3Z/rSvDFeYCBj7qmfSuJAyNKEYDyf4p2TJUYL1obFQG6meOPc8wMerDa5+miNx9XezcZRRUzUFzNV7qw0sL1NK0VnEEgGsyZvTRQ58wRzYhwUWUTN4YW+LO9MlOjPmBvjr26ktdyA24sNPn60xnTV2dN/Jx42YqI+f1zh5kKdhr116iMZ+jMm754s8UJ/FquL4+Ze8GRPdyBraPxoOMdr4wXylr4l4cnQdH1uzNf4aHKVRxUb/xgQFhP12XSFG/N1ana7OakzpA2lpr82VqDwBEbhGE/+hgSEUIPO18YKXB7OKTU5lqiEzQ6plmU2HJ8bczU+erjKo3X7SDeJbhAyXbH5bGqdG/M1aran8pPIE/F5KMkaGpdH8rw6WqAvvbfx1HY4ULKILAujOYs3J0o8P5TF0gVhGEYOkyFhqEJ83HA8bszX+Hhylcn11pEkzAskUxWbT6bWuD5fpWp7BGFIKKMQ5Sk+TxmC54dyvHuqzIlCek9Wil44cLIAUrrgdCnDu6f6eG4wS8rY3EaoM4QykrD5Kh8/XOXh2tEizA8l05UWVydX+XZWEaUq29a8SKnsfmf7s7x1sszZcprUPtX0bngqZAFYhsb5/izvne7nTF8WXSPK0KbfA5F7chiG1G2Pm/NVPnqwwt2VBm60kuMw4YWSyfUWv3+wwrW5CnXHU84uUSux6V6tmkFdg9PlDG+fLPFcf+aJFYpOPLEFoxck0PICvl2o8f/uLjG91iSIrN4yNnQkvi6EIJfSOT+Q429Olrk0XKBodV/7+7ThBpLvl+tcfbjC90t1mm6AjIzB3UpM1wUT5Qzvnx3kyliRoqUMzAeJp0oWESl1x+faQpV/u7vEzHpri9E3PhMRYZahMVHO8Oapfl4bL1FKP1vCbD/k69kKHz9YZmqtpaS8RzFpmuBEOcNPzg7wyliJcrq3S9l+8dTJIqqJddfn2nyV395ZYHbd3kJYshoKwDQ0xosZ3jrTzxsTZcrp/buD7QUtL+CTR6t88mCF+WpLmZC2IG4XFFHj5Qw/OTfAq2Nl+jJPhyieFVnEhHk+385V+efv5lmo2IRt25O1Z1AIiaFpDOYtrpwo8/bpfsaL3R32DwJSQsXx+M2dJb6aXmW14bDZbW6Sk4SmCcZLaX56fojXTqgK9QQGih3xzMgiynLDDbixUONfvptnerWutm6T8b8WxDmVG+Wja4JC2uSVE318+NwQJ0oHT5iUkqWGyz/enOX6TJWG46H2JIgjxB3sZhJ1TTDRl+XDC8O8MlamYBlPlSieNVlE+XX9kHsrdf7X9VnuL9aUNtUDQkDa1Dk/VOCD54a4PFokY+zf+yiJQEpuLFb511sL3F+u43g7b5Fn6Bon+3P87OIwr46XyKUOXpnohmdOVowglDxca/KP12e4/nht43r3BkfB0AQn+nP84vlRfjxRJrPPtb0xglBydXKFf701x0K11WVPxa0wdY3zwwV++cIYL40WMPUn89vYCw6NLKKlN4/WG/zPbx5z8/HaptdqkrHNFhGE0hazKZ33L47ws+eGGcil9tWhV2yPf7o1x6f3l2g4Xps0ycQewMnjlKFxaazEr18c5/mh/L6++yQ4VLKIuqvZWot/vjXHnx4uY7tBO1sxeck+BIG5UXBjXBjafQ0PQsnkWpP/c2OG649X8Ta2iotqSvzpjWJR+2lYps7l8TJ/f3mc5wZyB2Lr2ysOnawYNdvno3uL/MvNGWotL9pepwsSYiYEjPfl+PkLo7x+so9SentvoVBK6o7P1zNr/ObmHI9XG+1fkEmx3oQACukUr58d5O8vjzOct3ZVKZ4GjgxZEqjaHlfvLfK77+dZbdj4XTZI7IQQgpSp8/7zI3zw3DBjxQxGQsok4AUhM5UWv7+zwKf3F7CdyOk0yU3ygehYE4L+nMW7z43w95fHyaWerI98UhwZsmK4Qci3s+v85uYM9xerONts4tgJIQTnR4r88sUxXhgpbQyiK7bHjbl1/u32HPcXqjtqejEMXXCyP8+Hl8b56blBzAO28+0HR44sAMcP+W6hwh/uLHB7dp1qy1XKRyQGSWFoO5aSbMbi7eeGeOvsEBrwp0fL/PHuAnVbKRFJAYqfixELVcYyeGGszC8un+DKeDkR43BxJMkiUgRmKy0+ubfAXyaXWaq2NhcgQJdi3oSmCU4MFDA0wfRyTS1k26C2e48jouf68mlePd3Pr1+aYKyY6Yx2qDiyZBEpBcsNh6+nVvn8/iKPlqq03J0HrdAhdp3ouCeEIGVonBos8PaFEd49N0wp82xskXvBkSYrRt3x+X6+whf3F7k5s8p6w1Gu0smUbwhO5AsnkheT7V47U7qmUciYvHiij3cvjnHlRN+R6J+64ViQRdQszqw3+eLBIl9NLjGzWsdxg0SxJ5rHOEvbqPExUobGxECB184O8ea5ISbKuV0tajssHBuyiJrF9abLd3PrfHFvgduza1SbjloGCj37pCQMTSOXNrk80c/bF0a5fKKPgnVwCyaeFo4VWTEcP2ByucaXD5b4ZnKJ+bUGjqdmcntBCLAMnRMDBX58bpg3zg5zsj93ZJu9ThxLsoiaxZWGw935dT69M8+dWdWXBTIyJnZA1wSlrMWlk/28e3GMF8b7KKVTR16akji2ZMVw/IDFaos/PVjk8ztzzK01cDw/UteVApG1DEbLeV5/boTXzw1zopwjtY9VHIeNY09WjGrLZXqlxhcPFplZqVGp20gJxZzFhfE+Xp4YZGIgT3GPqw2PEv5qyCJqGmu2i+2pfXORaqIwaxnkrN1tX3CU8VdF1l87jl/D/e8YP5B1jPADWccIP5B1jPD/AcuXCbk7Iaw1AAAAAElFTkSuQmCC;fontStyle=1" vertex="1" parent="7LoG_nnSIzDE0TpUXg6_-1">
          <mxGeometry x="327.18" y="290" width="55.64" height="65" as="geometry" />
        </mxCell>
      </root>
    </mxGraphModel>
  </diagram>
  <diagram name="overview-credential-manager-simplified" id="b2w6TbNdDMuqBooen4r5">
    <mxGraphModel dx="1426" dy="841" grid="1" gridSize="10" guides="1" tooltips="1" connect="1" arrows="1" fold="1" page="1" pageScale="1" pageWidth="827" pageHeight="1169" math="0" shadow="0">
      <root>
        <mxCell id="tpdwWfrMu0QRglo2Iwno-0" />
        <mxCell id="tpdwWfrMu0QRglo2Iwno-1" parent="tpdwWfrMu0QRglo2Iwno-0" />
        <mxCell id="tpdwWfrMu0QRglo2Iwno-3" value="" style="rounded=1;whiteSpace=wrap;html=1;dashed=1;" vertex="1" parent="tpdwWfrMu0QRglo2Iwno-1">
          <mxGeometry x="280" y="80" width="320" height="340" as="geometry" />
        </mxCell>
        <mxCell id="tpdwWfrMu0QRglo2Iwno-4" value="API Management" style="image;aspect=fixed;html=1;points=[];align=center;fontSize=12;image=img/lib/azure2/app_services/API_Management_Services.svg;imageBackground=default;" vertex="1" parent="tpdwWfrMu0QRglo2Iwno-1">
          <mxGeometry x="407.5" y="40" width="65" height="60" as="geometry" />
        </mxCell>
        <mxCell id="tpdwWfrMu0QRglo2Iwno-5" value="Protected&#xa;Backend API" style="shape=image;verticalLabelPosition=bottom;labelBackgroundColor=default;verticalAlign=top;aspect=fixed;imageAspect=0;image=data:image/svg+xml,PHN2ZyB4bWxucz0iaHR0cDovL3d3dy53My5vcmcvMjAwMC9zdmciIHZpZXdCb3g9IjAgMCA1MCA1MCI+JiN4YTsgICAgPHBhdGggZmlsbD0iIzU3YTMwMCIgZD0iTTAgMjAuODRoMTkuNTV2OC4zMkgweiIvPiYjeGE7ICAgIDxwYXRoIGZpbGw9IiM1OWI0ZDkiIGQ9Ik00MS42OCAyMC44NGgxMC4yNnY4LjMySDQxLjY4eiIvPiYjeGE7ICAgIDxjaXJjbGUgZmlsbD0iIzU3YTMwMCIgcj0iOS40NiIgY3k9IjI1IiBjeD0iMjAuMTIiLz4mI3hhOyAgICA8cGF0aCBmaWxsPSIjNTliNGQ5IiBkPSJNMjAuMTIuNDh2MTAuOTZhMSAxIDAgMCAxIDAgMjcuMTR2MTAuOTZhMSAxIDAgMCAwIDAtNDkuMDVaIi8+JiN4YTs8L3N2Zz4=;imageBackground=none;fontStyle=1" vertex="1" parent="tpdwWfrMu0QRglo2Iwno-1">
          <mxGeometry x="510" y="160" width="50" height="50" as="geometry" />
        </mxCell>
        <mxCell id="tpdwWfrMu0QRglo2Iwno-8" value="3. calls API&lt;div&gt;with Bearer token&lt;/div&gt;" style="edgeStyle=orthogonalEdgeStyle;rounded=0;orthogonalLoop=1;jettySize=auto;html=1;" edge="1" parent="tpdwWfrMu0QRglo2Iwno-1" source="tpdwWfrMu0QRglo2Iwno-13" target="tpdwWfrMu0QRglo2Iwno-5">
          <mxGeometry x="-0.0769" y="25" relative="1" as="geometry">
            <mxPoint as="offset" />
          </mxGeometry>
        </mxCell>
        <mxCell id="tpdwWfrMu0QRglo2Iwno-9" value="Client" style="verticalLabelPosition=bottom;html=1;verticalAlign=top;align=center;strokeColor=none;fillColor=#00BEF2;shape=mxgraph.azure.user;fontStyle=0;labelBackgroundColor=default;" vertex="1" parent="tpdwWfrMu0QRglo2Iwno-1">
          <mxGeometry x="110" y="160" width="47.5" height="50" as="geometry" />
        </mxCell>
        <mxCell id="tpdwWfrMu0QRglo2Iwno-11" value="1. call API&lt;div&gt;without authentication&lt;/div&gt;" style="edgeStyle=orthogonalEdgeStyle;rounded=0;orthogonalLoop=1;jettySize=auto;html=1;" edge="1" parent="tpdwWfrMu0QRglo2Iwno-1" source="tpdwWfrMu0QRglo2Iwno-9" target="tpdwWfrMu0QRglo2Iwno-13">
          <mxGeometry x="-0.3454" y="25" relative="1" as="geometry">
            <mxPoint as="offset" />
            <mxPoint x="158" y="185" as="sourcePoint" />
            <mxPoint x="545" y="185" as="targetPoint" />
          </mxGeometry>
        </mxCell>
        <mxCell id="tpdwWfrMu0QRglo2Iwno-12" value="2. retrieve token" style="rounded=0;orthogonalLoop=1;jettySize=auto;html=1;" edge="1" parent="tpdwWfrMu0QRglo2Iwno-1" source="tpdwWfrMu0QRglo2Iwno-13" target="tpdwWfrMu0QRglo2Iwno-16">
          <mxGeometry x="0.4286" relative="1" as="geometry">
            <mxPoint as="offset" />
          </mxGeometry>
        </mxCell>
        <mxCell id="tpdwWfrMu0QRglo2Iwno-13" value="Unprotected API" style="shape=image;verticalLabelPosition=bottom;labelBackgroundColor=default;verticalAlign=top;aspect=fixed;imageAspect=0;image=data:image/svg+xml,PHN2ZyB4bWxucz0iaHR0cDovL3d3dy53My5vcmcvMjAwMC9zdmciIHZpZXdCb3g9IjAgMCA1MCA1MCI+JiN4YTsgICAgPHBhdGggZmlsbD0iIzU3YTMwMCIgZD0iTTAgMjAuODRoMTkuNTV2OC4zMkgweiIvPiYjeGE7ICAgIDxwYXRoIGZpbGw9IiM1OWI0ZDkiIGQ9Ik00MS42OCAyMC44NGgxMC4yNnY4LjMySDQxLjY4eiIvPiYjeGE7ICAgIDxjaXJjbGUgZmlsbD0iIzU3YTMwMCIgcj0iOS40NiIgY3k9IjI1IiBjeD0iMjAuMTIiLz4mI3hhOyAgICA8cGF0aCBmaWxsPSIjNTliNGQ5IiBkPSJNMjAuMTIuNDh2MTAuOTZhMSAxIDAgMCAxIDAgMjcuMTR2MTAuOTZhMSAxIDAgMCAwIDAtNDkuMDVaIi8+JiN4YTs8L3N2Zz4=;imageBackground=none;fontStyle=1" vertex="1" parent="tpdwWfrMu0QRglo2Iwno-1">
          <mxGeometry x="330" y="160" width="50" height="50" as="geometry" />
        </mxCell>
        <mxCell id="tpdwWfrMu0QRglo2Iwno-14" value="Microsoft Entra ID" style="image;aspect=fixed;html=1;points=[];align=center;fontSize=12;image=img/lib/azure2/other/Entra_Identity.svg;" vertex="1" parent="tpdwWfrMu0QRglo2Iwno-1">
          <mxGeometry x="640" y="292.28" width="68" height="60.440000000000005" as="geometry" />
        </mxCell>
        <mxCell id="eZ4JhBO0He-NAS-CZ4ZC-0" value="2a. retrieve token" style="edgeStyle=orthogonalEdgeStyle;rounded=0;orthogonalLoop=1;jettySize=auto;html=1;" edge="1" parent="tpdwWfrMu0QRglo2Iwno-1" source="tpdwWfrMu0QRglo2Iwno-16" target="tpdwWfrMu0QRglo2Iwno-14">
          <mxGeometry relative="1" as="geometry" />
        </mxCell>
        <mxCell id="tpdwWfrMu0QRglo2Iwno-16" value="Credential&#xa;Manager" style="shape=image;verticalLabelPosition=bottom;labelBackgroundColor=default;verticalAlign=top;aspect=fixed;imageAspect=0;image=data:image/png,iVBORw0KGgoAAAANSUhEUgAAAGsAAAB9CAYAAAClMJ2KAAAAAXNSR0IArs4c6QAAAARnQU1BAACxjwv8YQUAAAAJcEhZcwAADsMAAA7DAcdvqGQAACJCSURBVHhe7Z3ZkxzHnd8/WUdX391zHxjcBEgQFEFS5PKUSEorrbSxfvCD/z2H7Qe/2BGOtdcbq5VXIgWKlySSIA6COAczmPvsu+70Q1bNVPf09BwYYGa0/EZkdB1ZVZn5zV/mL3/5y2whpZT8gGMBrfPCDzi6+IGsY4QfyDpG+IGsY4QfyDpGEMddG/SlxA6g5kuqnsSTEl+CE6pspTRICYGhCwqGoGgI8rrofM2xwLEhSwKhhLovmXdC5u2AJTuk4oa4IXgheFIiZRxXZUsTAiFUE2IIMDRBzhDkTY1BS2M0rTGR0UhrAk3AUabxyJMVSGgEkplWwINGwEwjoOZJnFDiheCHkt1mQAiBlBItIs3UBCkNSinBSEbnStFgyNJIaYKjKHxHlqwgkqKpVsB3VZ+ZRkDdl7ihkp79ICarE5oAUxPkDcFY1uBKn8HphLQdFRw5siTQCiRzdsiNis/9mk/Nk3uSIHoQ0w1xXAHomqBoCi4WTV4u6QxZGpkjImZHiqxAwroXcrsWcH3dZ8kOcIO9kXQQEChJ67cEL/eZ/KhoUDK1Q5eyI0OWHUhm7YBvKz7fV3waviRS6HaNTmnqPN8rNAEZXXC+YPBGv8lo+nCl7NDJCiVUfMn3NZ/r6x5zrRA3ONQkQQfRKU0wmtX4UdnkYl6nbGqHooAcGllx3zTTCviuqpSIhhfuWZoAhFBquakJDE1s9kFCfSgEvFAShBI/VN/eK3QBRVPjfEHnUslgLK2T15+tAvLMyYpJmrVDHjZ87tUCFlohwR4UCBE1T6WURtnUKBqCtA5pQ5DShIoQ9T0AgZQ4gcQLJS1fUvMla66k4oXYgdIud9Nkqr4MhjI65/I6Z3L6MyXtmZAlATeUrLiSuVbAgh0y1QxYtEO8PajiWlS7x7M6J7MaQ5ZGf0qjZAoMASC2HdSqT6ixWc2XrLghK07I41bIZCOg7oV7SoelC/pTGhNZnYmsznBao9/USOtPb2D9VMgKJLRCZf5Z90LWXMmaG7Jshyw64UZzt9sPCyBnapzOaVwsGJzM6pRNgSmUyWE/hSMBKWHFC5luBNypBTxs+DS9PUg4anCdNxVxAymNgbRGX0pQNFUlyh7gAHtPZEmUSWe2FdIKJF5U4F4ocUNwQ2j5IU6g7HUNX9IIJA0/pLUP7Y6orxhK61wuGbxQ1Bmy9EiKDg6hhGU35E7N59q6x0Jrf32nJiBjKHNWVle/GV1Jm6kJ0rogpYMpVLNpRQPxsqni75StXZPVCCTXKz5TjYAVJ8STklhpCyT4EoLIBBRENrongQCyhuBMXuflssnprE7O2DlD+4WMhg/TrYA/rXrcqwV4B6CVCgG6EOiaIsnQlJ1SKUUCS4N+S+P5osG5nN6TtF2RVfFCPl/xuLHuU+nQ2DY1r5076F4QQjVLQgh0IRmwdF4qGVwqGgykNMxnNJkTSFhyQ25XfT5dcrGDuMncf95ibFdGhgb9ls6VsskrZYOi2Z2wHclqBJJPl12+XvOouRK2+eBBIB6EnsrrvFI2ObNDTXtakJHGOtnw+XrdZ7IebGiNTwtCQMHUeHswxWt9BrkuHV1PsiRwbd3n6pLLkh3s2I5vV3N2QmxIHUlrvNxncDFvUDA1zK3pfaYIJKy6Id/XfL5d91m2Q3y5v753txhMa/xqzOJi3tgyHOhJViOQ/G7B4dqajxP2bgr2SpQANE1gCRjM6LxY1LmYNyin1NTFIfO0ARkNO1bdkDu1gJsVn1Un3Oibd4vdlo8m4IMRi7cGTLId0tWTrMlmwEeLLpN1Hz/svLt3xJ2tKZTyMJZVqvhzOZ2soUw4R4WkTshI6614kqlmwN2az2wroBWoic+9Dep7E/dC2eAXIxbDltZWHj3JutsI+HjBYboRbGh+e4EWk6Mp+1pGV5bss3lFUDmloUXxjgtkND7zpWTNkzxsBExGGnLTVxLnR1K32zLrJO9sweDvRi1OZJ6ArM6XEk0lWLpSR7VIHTU0ZVHIGMokNBxNnY9Gs7B/jWgGknk7ZNENWXFDVu2QhqcmSwOpxnIxga4Ev8fUz9miwa9GLcbTT0BWEkIIBJJzRZNLRZ2crvqakiko6IpAI7LR/XuFL6EehDR8iR1I6r4ydd2r+zyqBXiRptIpBNtJVu/RS/S86FLoUko0YCyj8UbZ5KWiwfN5nVFLI2eIf/dEETnolA2NE2md8zmDKyWD18sG42m9bdy4RV42bdFt6E1WhC0v+wEHhm6CoDrGzou7JKsXunzqB+yERKFtJwjdru6ZrM6a0O2lP+DpYE9kJe2ARwmBVAPXVqCCHUR+hVLd+2vBnsiKRTYpuodNmxtKFpyQu/WAaxWPaxWPG1Wf27WAR42AOTtgzZWRz6Ga4j907LMC7UDWbt66mzhPB16orAlfrHhcXXT545LHH5c8PllyuLrk8PGiy0cLLn9YdvnLms/dus+CrVTp4yhxO5DVBR0d4mHmedEJ+WbN51bF43EzYM0JWXNClm3JfDPkYd3ndtXn61WPL1Zcri65XF10+WbdZ7oZUPFC/EPJwE4fVQ6nndiBrDa1ZQtRh4lQwlQz4FHDx45LPE5jMq1SefNW3ZDHjYBbFY/Pl10+WnT4ctVjqhnQ6mFNeGpIfrBLurulaAeyonn7HiR1qwHPAr6UVFzlLiDjTEaKz0ZqE4TFwQ8la07A/ZrPV6senyy5XK/4LDrh4TSN25bt1pLdgawekHIX4vz0IIRQy3mSF6Wqj1uzuRVSQs0NeVDz+WzJ4fNll0fNAO9ZaiDbEtUd+yMr8ZHurevThyFgKK1RMNX6qxh7TY0fSpbtkJvrHn9cdrld87GfCWE7EbX1/o5kxW3n1kcPFwI4ndU5XzDIG+2E9UK3fEig6UseRH4Xtyo+7jMhbG/YkawYybJoz3C37D8blE2NK30mrw+kuFg0OJ3XGc0q3718SnkSdUv3din2Qslc0+fzZYcbVe/IEbYjWd0qbLdrhwFNwFha541+kw+GLT4YsXh/JM37IxbvD1u8O5TiSr/JiayOkZhH25L+BHu+hAU74LMll++q3jNXOqSMFKYu2JGs7aBe2nn12UOPvIJOZHTO5QwuFQxeLpm83pfiJ0MWHw5b/GzU4ifDKc4WdFIdUxNSyi3sBSEs2sp/cKoZtN98QmgC8oZy8oy/32kZSmndp5h2JEvGoQszIo5wyBBRIejRahK1ogTSuqDf0riQN3hnMMXfjli8M2QxktE3XAmSE39qCKCuByHMNX2+WnNZO0AVUReCYUtTLnZb+UDXBIOp6H7HvR3JAtq1vzZN8OgjJjKjC87kDN4ZSvHzUYtzBQND6yAKpVDFtd0J4H5VrRs7qOZQFzCS1nmxbJJPaLJSSjQhmMjpXCgYZLv4iO+OrAidGTsedLUjpwsuFgw+HEnxUr9JpkuhxJBSUvdDbld8Hh1gc5jTBa/1mbwzaDGRMyhGCxpeHVB978lcd3/+3j4YdZ+P5h2mG37XmmVo8M5oml8MWcfKQ4nEYoSriw631j3sbhmMkDU0Xu03+XAkTUbvvLs/SNTCjTVXrRHTBZRTGkVT60oUe5UsuvVd2+fxmSEMIQwkgScJfEm4C5dZTcBQSuOtwRRnCjpmj9pmB2o92aOm33lr3xAoReNkVjV75/IG/antiWI/ZB2ViUcZgueENKsBa3MOiw9tZu80WbjfYm3GoVnx8ewQ2YM4IWAkrfHWgMVwRt/SoccVM5SwaodM1QPsHu972thFM2h3dUUjbgZH0vxi+Nk1g1KC74Y0Kz6rMw5r8y5OPSAIJDJQBGiGwMpqFIdMBk6myfebpNLb10s7kHy56vLJgkPdC4Gtmpqhwdm8wQejac5kD6gt3CO2z0GEJEdtmuAhjLOkBLvhM3e3yZ0vKkx+W2NpqkVlyaG+5tKoutQrLtUVl+XHNlM363z/aYXH39VprHvIbTRwSxNcLpqMZnX0aK+nWCOM8xyEapHC4i4WaDwt7EhWrO3LxBqs+PhZQkpo1X1m7zaYvFFlabpFo+rhuQF+EOL7yRDgeQGths/qfIuH31R58HWV+rrX+VqImsOiKXixZGJ1WWojpSSUkqYvWbFDmt2amWeAHcnaDj1az6cCzw5YfNhk+rs664sOruPj+8GW4HkqxMeuG1CruDy+W2fquxr2Niq4oQnO5HTKlthWa/ICtXB87ZCMhrsga6s5JHkvkBI7pHcIJHao1hlvubeL0PJClhdsZu7XWV+yO4iKJCk+D6LghwRBqI69gGbVZeZOjaWpZtfmUAAlU+NswWC7HimUkoobKHW7Szr3G9xQKTE7YUcF4/fzNtN1n2DL25R961TB4FzO2NIhtyH5aK9426EZ4N2t0bhTx2v4u+or48/IxLFmCE6/WOSl9wbJlcxEbAVfwvdVj/8x2cQNO9wYoolOtc7ZYLTbgCv5sT1AixaD91s6J7K6mvLpjLQzWR6/n3fayIrTE//qmlpvlUQvbuJ73Qqz8zyOa6159N2pkllyEFsqze4Qv7M4aPHKB8OculTsiKG+N98K+M/36jS2sQcK1NRLsmvrzFN8rdd5JzRN0JfSuNyX4kqfSdlsX5TArsiaU5KlFtN1UrWpaMhNF4guNb9bdrYi1sKiMxU9kGQWbQa/r5KuuBtf33hmm4LY7ou6ofHKB8P86N0hRJfxxqoT8l8f1llqBlFaNuNsn7+d0FluW98louyWLZ2fj6V5qWxuWR61Y58lN1qDOIXtv5vqbbuqq+7HIUbyPHl/8/m2uFJCECJbPr4T4Hshnteu+Xnxrxfg+SGeH+Al4m1c89V9x/Zp1Dy8bZQEXYOc2V4l4nwl87pTaI9LdC2ujO3HoKwuoVTOPA/qHrUuPnI9yUqWXUyaSkTytz1Esbdcbw/qfvt7O94TvyuQSDcg9PyE8tAlBErR8P1IqfA7lZBNRcRp+fjbNnNgIhLpjDbs6pLWbtfi52Ik47Zfay+j+HoYStYje2EnXT3J0gVoYpP9ZC3ZFOuYVRWklNHlZNzO42TcxLVE6jemKqLfbUnqCEEULwhCgiAgSFyPg+zhRC2j6f3NApfKZJVMZ/J6R57a87r52y5lMTqZVHE6dZsYPckaTRsMx9vvxCRshGgvuFgPTtzbIKztmc7no5B8dgObcaUQBLrAh+6ERdIWRL9e4lp8HETHsXpvZQzSWSP5wQ3IaJHDljSSzEd0f+PadiFRDlueT75jG3Y60JOsrCG4VLYYyRjoQklSXOPa351MeURW8q6MU9953hnie/GkoEToApnR8HWJFzd1MWnRb3Ig3BmSJPl+QCqrke8z0bpYKoi2u6vaSrlob85UelS5xvc6070ZdzN+dH9DWpPPbjyx+SMhq6lF853oqQ0Sb9zhBHy54nCn4lJ3w40KskXVihHdi28n40aUQ2TIij8eH3d7hooD11fQ71UQLX+rKtUFKkpcwTYfOfNCHx/+x7OMnS50PKEGppN1n/9yp4KzjUlJJDahRMRek2IjT+psMy8bb5GAUFdtTykT2+Gt0QwfjmUodzDWhb926NGUeEYXWLrafDGVPO4WEvHM5Hni2OpyvHEtDtEzpq6hd/ok9MgsXW7H55ou0PTts93dGLUJEZmmuuUpFW0hkcyL1RHH1LZa9DshEvW07fpOknUU4LR8bv15ic9+O83SXKO9BWmrw5E4R2IZj9uUARrSWZ33fn2ad391umtpOIHkkyWb3z1u4gfhpjhG0AQMZ3Q+HM/ySr/Vdm+3WHdD/tudKjPxRGZS7CMqPhjP8pOxDHljj5J1FGBlDE4/X+L8i2UyOZ0g3NTslEruR7ZAZQeMjz1PaYWeF4CQTJwvce5yf1eiAOxQMlX3CAKlNEmpOv74VwNyhhaNw/aOQMJCK8AJQ0VMLCeJYyFgwNLJdpH+rVeOKPqHs7z4xginLpRIWdqGiq40PzW26qYJ+n6ApsPE+SJv/e0Eoye39lVEBTnb9JmueJt9cqRMxNRoQNnSKJtd7IK7QCglM02PVmKM186ZJGsIrG3m9o8NWQAnzhR5+5eneeG1IfLlFBK5QVqsEW5ohkFAGEpMS+PcpT7e/4cznLvU39mybaDhh1xfc7CDcIu2Fmt3KR0GLZ1S0lN0D/AlzDcDnEgzVCTFx+p7JUsn28UuyHEjS9MFpy+U+eA/nOPNn53k9MUypYE0ZkpDaJF9TVPx8sUUY2fyvPruOL/4Txc49+JAV1sgqL2WHtV9Hq67apuejaGQIk5KVVB9KZ2RrEFqm/fshIYXstry8Ta+kVDjo/MBS3k4dWPrWCgY3eC5AYszNR7dW2duqkat4uJ7AYYhSFkGIxN5Tj3Xx6nzZVLp7adwQgnLTsC/TNe5veqorVZjfYWoEwEyOrw8mObDEzkGrL03g6GEv6zY/HaqzpoTbQ8ajV1j3UgX8P6JHD8dy5LrUC44CLKi7xwqAj+k1fCwbR8rbWClDSVt2zEUQUqoeiFfLrX4dLapnGXaiFLHItoT8SfjOf5mKLOv3aTdUPKPk3W+WWptWkg6ULA0fn0qz2uD6cgI0Y6t9O0SbiipeyEVJ6TuqR2nn4z2/UM3NPIli8GRHIWSRcrSdyYKRdS1FZuvFlub81cbeYh7fompqb9qOpU390UUwGIrYKHhKclNfiMRhjMGA2lj293p90VW0w+5te7w8WyD3z2u8/FsgxtrNutucGiE7QWhhIobcG3F5rP5JstNnzDqP5KdvYxaxFJK40I5xXB6780fkaZ5a81hqdX5nU1tUBeqQgylNxdNdGLPZLmB5Ktlm99PN/jDTINP59XvR48b/GmxRcXbyQZweJDxJictn78s2XweESWTpRaFmDBLF5wtmlwsWT29dnthxQ6YrDpKZd+oze1SlU9pjGSNnv8itGeyJusen881mak5+IHyePWDkLm6x58XmtxadfD3OfX+NOFFq/S/X3f5w2yDz+YaLDU8wjCePdjUzqSUyDBEQzKWM/jxUIb+fSgVRFJ1p+Kw0PAJwki7DFW5xUFIGMvqjGcNtB7N957JurVqs9KKHCajDBIlYN32ublis2QfDekKJNS9kMWWz511h6uzdX43VeXaYpO1piq8WIo2pUvlSSAYSOtcGcxwqrDVuWa3WLF97qzZ1BwlwW1NbRTShmAiZzLYowlkP2RVnMhVuaNtl9HK99m6y+01e1ur9dOAF0rWnYAl22eh5TPb8Jiqudxdd/hyocm/TtX47aMqf55rMlV1sb1o4NtReHEQQNHSeH0ky48G0l1XIe4GTiC5uWozXXWVrTEuKKkKLW4RB9I6JwupHcdve1bd/++jKn+crtGKfAQ686EJOFdO88szRc4XU9voNQeHmhfyqOYwWXWpe+pfg2wvxPYlThDS9EIaftj2VxWbOW73LJbRgra8pfPKcJafTxQo7tNaAXCv4vCbySoP1h3CLfZa9W1L13hjLMfPTuYppbYujkhizym5PJCmYOmISLWNJ9VkdByEktmaw3crLWrbOKUcFOpeyLXlJr97VOOLmTrXFhrcWGxxZ6XFw3WbmarLWsvHiSRpszVob/KSElVK67w6lOW9sfwTEVX3Q26v2szWXbWNeIf0xk3gYEbnQtkib3Q3MSWx59RMZE2e70+jJ5z3O0lrugG3V1rcXbc3Nu19GnhYdfhqvsnjqkPdDWh5IY4f4EeeQkR2NxHPziZD1B7FadaQDGUN3hzL8/5EnsF9qulEs8331m3urLZoucHGN9vKS0JKh9OlFCcLJvoOTSD7IcvQBG+M5ChaeltmZVwAUUEt1l2+XWww11BW7IOGH0pmay5LDRcvNr5K9f3YwSVO02YBbQ1IianB6ZLFexMF3h7NUrb0Lc37XrDQ9Lm+2GSh7rWNqzbSF6WrP23wQl+a3C6kiv2QBXAiZ3J5MNPhl9EuXV4Qcn/N5vpyk6p78NphIKHpBbhBuGVAu9sggP6MwSsjWX55psjrw1kKO/QbO6HmBny72OTuagvHjx1F26UYKcnoguf705wupHY9ftsXWZqAt8byjOYNRFxj4oTEfZmUNNyAm4tNHqw7B94cGhpkjGhZZyINccG0XZMJd7K4b7J0XhrM8PPTJf7uTJkL5TSZXdbw7eAGkjvrNjeXG9SdiKjOgETX4EQxxZXhLLlunjHbYPcxOzCWM/npySKWoW3WmA3vH5BSKRsLdZc/z9WYqbk9nUT2Cl0IThYtBjKGsrd2kRwV1D2iLcHK6UiSzpb59fk+3hzNMZiOvbf2j0BKpusO38w3mKu5+PEAOPp+fIyU5FM6PxrMMpIxew6CO7Fn1T2Jph/yv++t8tl0ddtF10KAZer8eDTPh6dKDGfNJ+oPkmj6IX+er/PZ4yqLDQ8/jI2x6gNCQMrQ6MuYDGUNRrIpRvMmp0sWg2mz5wB0r5hveFydrvL1fJ2666t+Olkk0bdSmsYrY3l+ebbMcMbY0eCcxBORJSU8rrv891uLPF53ohqskEyCEIJS2uC9UyXePlF44n4hiZoXMFVxmKw4rLbUFhCmLsiZgrypZl2LaYP+tEGfZZDpMk/0JJBAxfH583ydT6erLDfcTY7igyizmhCc7svwq/N9XCind91XxXgisoisB1/O1/in71eo2ZHHjthaq3QhGC1YvHeqxKsjOXLmwRFGNAvb8EMCKTGiP8PMGJpaI9wZ+YAgNxSKBp9PV3hc620XLadNfn6ujzfHC2T3UWn2/kQHTE3w0kCW10YLmHrE0gb/qq+IB8vzNZvPpyvcXm7hHMQfciWQMzWGMwZjWZOhtEHB1DGeIlEAth9yf63FV3O1yLAtN/Sbzc5bnac0jRcGs1wayPS0rPfCE5MFUEjp/M2JAhcGMtFuX3GnusmblBI/kMxUHb6YqfCoevAa4rOEE4RMVWz+Mlvj0VoL12+3kmxwFSk3Z/rSvDFeYCBj7qmfSuJAyNKEYDyf4p2TJUYL1obFQG6meOPc8wMerDa5+miNx9XezcZRRUzUFzNV7qw0sL1NK0VnEEgGsyZvTRQ58wRzYhwUWUTN4YW+LO9MlOjPmBvjr26ktdyA24sNPn60xnTV2dN/Jx42YqI+f1zh5kKdhr116iMZ+jMm754s8UJ/FquL4+Ze8GRPdyBraPxoOMdr4wXylr4l4cnQdH1uzNf4aHKVRxUb/xgQFhP12XSFG/N1ana7OakzpA2lpr82VqDwBEbhGE/+hgSEUIPO18YKXB7OKTU5lqiEzQ6plmU2HJ8bczU+erjKo3X7SDeJbhAyXbH5bGqdG/M1aran8pPIE/F5KMkaGpdH8rw6WqAvvbfx1HY4ULKILAujOYs3J0o8P5TF0gVhGEYOkyFhqEJ83HA8bszX+Hhylcn11pEkzAskUxWbT6bWuD5fpWp7BGFIKKMQ5Sk+TxmC54dyvHuqzIlCek9Wil44cLIAUrrgdCnDu6f6eG4wS8rY3EaoM4QykrD5Kh8/XOXh2tEizA8l05UWVydX+XZWEaUq29a8SKnsfmf7s7x1sszZcprUPtX0bngqZAFYhsb5/izvne7nTF8WXSPK0KbfA5F7chiG1G2Pm/NVPnqwwt2VBm60kuMw4YWSyfUWv3+wwrW5CnXHU84uUSux6V6tmkFdg9PlDG+fLPFcf+aJFYpOPLEFoxck0PICvl2o8f/uLjG91iSIrN4yNnQkvi6EIJfSOT+Q429Olrk0XKBodV/7+7ThBpLvl+tcfbjC90t1mm6AjIzB3UpM1wUT5Qzvnx3kyliRoqUMzAeJp0oWESl1x+faQpV/u7vEzHpri9E3PhMRYZahMVHO8Oapfl4bL1FKP1vCbD/k69kKHz9YZmqtpaS8RzFpmuBEOcNPzg7wyliJcrq3S9l+8dTJIqqJddfn2nyV395ZYHbd3kJYshoKwDQ0xosZ3jrTzxsTZcrp/buD7QUtL+CTR6t88mCF+WpLmZC2IG4XFFHj5Qw/OTfAq2Nl+jJPhyieFVnEhHk+385V+efv5lmo2IRt25O1Z1AIiaFpDOYtrpwo8/bpfsaL3R32DwJSQsXx+M2dJb6aXmW14bDZbW6Sk4SmCcZLaX56fojXTqgK9QQGih3xzMgiynLDDbixUONfvptnerWutm6T8b8WxDmVG+Wja4JC2uSVE318+NwQJ0oHT5iUkqWGyz/enOX6TJWG46H2JIgjxB3sZhJ1TTDRl+XDC8O8MlamYBlPlSieNVlE+XX9kHsrdf7X9VnuL9aUNtUDQkDa1Dk/VOCD54a4PFokY+zf+yiJQEpuLFb511sL3F+u43g7b5Fn6Bon+3P87OIwr46XyKUOXpnohmdOVowglDxca/KP12e4/nht43r3BkfB0AQn+nP84vlRfjxRJrPPtb0xglBydXKFf701x0K11WVPxa0wdY3zwwV++cIYL40WMPUn89vYCw6NLKKlN4/WG/zPbx5z8/HaptdqkrHNFhGE0hazKZ33L47ws+eGGcil9tWhV2yPf7o1x6f3l2g4Xps0ycQewMnjlKFxaazEr18c5/mh/L6++yQ4VLKIuqvZWot/vjXHnx4uY7tBO1sxeck+BIG5UXBjXBjafQ0PQsnkWpP/c2OG649X8Ta2iotqSvzpjWJR+2lYps7l8TJ/f3mc5wZyB2Lr2ysOnawYNdvno3uL/MvNGWotL9pepwsSYiYEjPfl+PkLo7x+so9SentvoVBK6o7P1zNr/ObmHI9XG+1fkEmx3oQACukUr58d5O8vjzOct3ZVKZ4GjgxZEqjaHlfvLfK77+dZbdj4XTZI7IQQgpSp8/7zI3zw3DBjxQxGQsok4AUhM5UWv7+zwKf3F7CdyOk0yU3ygehYE4L+nMW7z43w95fHyaWerI98UhwZsmK4Qci3s+v85uYM9xerONts4tgJIQTnR4r88sUxXhgpbQyiK7bHjbl1/u32HPcXqjtqejEMXXCyP8+Hl8b56blBzAO28+0HR44sAMcP+W6hwh/uLHB7dp1qy1XKRyQGSWFoO5aSbMbi7eeGeOvsEBrwp0fL/PHuAnVbKRFJAYqfixELVcYyeGGszC8un+DKeDkR43BxJMkiUgRmKy0+ubfAXyaXWaq2NhcgQJdi3oSmCU4MFDA0wfRyTS1k26C2e48jouf68mlePd3Pr1+aYKyY6Yx2qDiyZBEpBcsNh6+nVvn8/iKPlqq03J0HrdAhdp3ouCeEIGVonBos8PaFEd49N0wp82xskXvBkSYrRt3x+X6+whf3F7k5s8p6w1Gu0smUbwhO5AsnkheT7V47U7qmUciYvHiij3cvjnHlRN+R6J+64ViQRdQszqw3+eLBIl9NLjGzWsdxg0SxJ5rHOEvbqPExUobGxECB184O8ea5ISbKuV0tajssHBuyiJrF9abLd3PrfHFvgduza1SbjloGCj37pCQMTSOXNrk80c/bF0a5fKKPgnVwCyaeFo4VWTEcP2ByucaXD5b4ZnKJ+bUGjqdmcntBCLAMnRMDBX58bpg3zg5zsj93ZJu9ThxLsoiaxZWGw935dT69M8+dWdWXBTIyJnZA1wSlrMWlk/28e3GMF8b7KKVTR16akji2ZMVw/IDFaos/PVjk8ztzzK01cDw/UteVApG1DEbLeV5/boTXzw1zopwjtY9VHIeNY09WjGrLZXqlxhcPFplZqVGp20gJxZzFhfE+Xp4YZGIgT3GPqw2PEv5qyCJqGmu2i+2pfXORaqIwaxnkrN1tX3CU8VdF1l87jl/D/e8YP5B1jPADWccIP5B1jPD/AcuXCbk7Iaw1AAAAAElFTkSuQmCC;fontStyle=1" vertex="1" parent="tpdwWfrMu0QRglo2Iwno-1">
          <mxGeometry x="327.18" y="290" width="55.64" height="65" as="geometry" />
        </mxCell>
      </root>
    </mxGraphModel>
  </diagram>
</mxfile>
